<svg width="51" height="51" viewBox="0 0 51 51" fill="none" xmlns="http://www.w3.org/2000/svg">
<path d="M25.5755 3.23828C13.3483 3.23828 3.40723 13.1793 3.40723 25.4065C3.40723 37.6337 13.3483 47.5747 25.5755 47.5747C37.8026 47.5747 47.7437 37.6337 47.7437 25.4065C47.7437 13.1793 37.8026 3.23828 25.5755 3.23828Z" fill="#FDDD4C"/>
<path d="M15.8668 31.186C15.382 30.4521 16.6012 29.3414 16.1053 28.4089C15.8195 27.871 15.3522 27.5359 14.7911 27.4656C14.2526 27.398 13.6978 27.5951 13.3442 27.9804C12.7859 28.588 12.6991 29.415 12.807 29.7076C12.8466 29.8149 12.9087 29.8441 12.9531 29.8504C13.2572 29.8904 13.4283 29.11 13.5333 28.9475C13.8236 28.4994 14.4827 28.3638 14.9379 28.6583C15.801 29.2166 15.0526 30.1188 15.1172 30.8808C15.18 31.6228 15.6423 31.921 16.0573 31.9524C16.4611 31.9677 16.7434 31.7434 16.8147 31.5796C16.9856 31.1888 16.2656 31.7898 15.8668 31.186Z" fill="black"/>
<path d="M33.9004 24.4495C33.674 24.4182 33.4266 24.4189 33.1692 24.4495C32.9737 24.2029 32.7986 23.8036 32.6998 23.3376C32.524 22.5085 32.5424 21.9079 33.0329 21.8299C33.5235 21.7518 33.7606 22.2535 33.9364 23.0826C34.0543 23.6399 34.0317 24.152 33.9004 24.4495Z" fill="black"/>
<path d="M28.5276 24.9428C28.547 25.1305 28.5539 25.3205 28.5484 25.4954C29.023 25.5233 29.3592 25.7487 29.4487 25.8918C29.4946 25.9656 29.4763 26.0137 29.4614 26.036C29.4124 26.1124 29.307 26.1006 29.0864 26.0759C28.8938 26.0542 28.6863 26.0352 28.4707 26.0451C28.3533 26.405 28.0054 26.4387 27.7609 26.1725C27.5902 26.2246 27.2548 26.4388 27.1548 26.206C27.154 26.0905 27.2747 25.9226 27.4935 25.7743C27.3441 25.4895 27.2441 25.1846 27.185 24.8689C26.8749 24.9247 26.5959 25.0116 26.3773 25.0797C26.2746 25.1116 25.8685 25.2951 25.8209 25.0883C25.7891 24.9455 26.0114 24.71 26.2465 24.54C26.5091 24.3536 26.8005 24.2211 27.1025 24.1446C27.096 23.6949 27.2107 23.3812 27.5374 23.3292C27.9425 23.2648 28.1936 23.5766 28.3674 24.1542C28.8569 24.2902 29.3459 24.6275 29.5617 24.9762C29.6457 25.1113 29.6619 25.2158 29.6076 25.2709C29.4719 25.4115 28.7202 25.0039 28.5276 24.9428Z" fill="black"/>
<path d="M31.7469 26.9639C32.0575 27.1144 32.3991 27.0552 32.5106 26.8316C32.6221 26.6079 32.4605 26.3049 32.1499 26.1544C31.8394 26.0039 31.4978 26.0631 31.3862 26.2867C31.2747 26.5104 31.4364 26.8135 31.7469 26.9639Z" fill="black"/>
<path d="M33.2757 25.8534C33.2813 25.5113 33.4909 25.2382 33.7429 25.2424C33.9949 25.2472 34.1946 25.5273 34.189 25.8687C34.1834 26.2101 33.9737 26.4832 33.7217 26.479C33.4698 26.4748 33.27 26.1948 33.2757 25.8534Z" fill="black"/>
<path fill-rule="evenodd" clip-rule="evenodd" d="M40.1087 30.0427C40.1067 30.0356 40.1137 30.0602 40.1087 30.0427C40.6148 30.0427 41.4096 30.6168 41.4096 32.004C41.4096 33.3842 40.8294 34.9476 40.6925 35.2946C38.6025 40.2384 33.6145 42.9904 27.6729 42.8163C22.1337 42.6539 17.4096 39.7688 15.3423 35.0653C14.0923 35.0667 12.8035 34.524 11.8238 33.667C10.7912 32.7641 10.1545 31.5957 10.0303 30.3772C9.93361 29.4282 10.0515 28.5455 10.3529 27.7756L9.1918 26.8044C3.8784 22.3761 20.4969 4.14312 25.8117 8.71913C25.8385 8.74212 27.62 10.4672 27.6242 10.4714C30.1869 9.39731 37.0533 7.35237 37.061 12.1128C37.0638 13.6937 36.0432 15.5372 34.4078 17.21C36.2978 18.9401 35.7994 21.3976 36.1004 23.6525L36.7568 23.8322C38.0082 24.1785 38.8983 24.6404 39.3338 25.0919C39.7692 25.5427 39.9852 25.9795 40.0636 26.4916C40.137 26.9047 40.1271 27.6342 39.5751 28.45C39.7739 28.9763 39.9553 29.5011 40.1087 30.0427ZM15.2484 33.7827C15.4341 33.7869 15.6183 33.775 15.799 33.7444C17.7407 33.4176 18.2489 31.3358 17.9291 29.2917C17.5677 26.9835 15.986 26.1697 14.9125 26.1119C14.6139 26.0965 14.3365 26.123 14.1078 26.1683C12.1915 26.5494 11.1095 28.1588 11.3227 30.249C11.5154 32.1405 13.4535 33.7353 15.2484 33.7827ZM10.9083 26.7354C11.5513 25.8137 12.6023 25.1469 13.7951 24.9177C15.3134 20.8949 17.8487 17.1884 21.2041 14.6377C23.6942 12.5873 26.3799 11.1165 26.3799 11.1165C26.3799 11.1165 24.9337 9.46113 24.4968 9.33921C21.8097 8.62299 16.0065 12.5733 12.3009 17.7931C10.8018 19.9049 8.65538 23.6448 9.68164 25.5684C9.80798 25.8067 10.5244 26.4191 10.9083 26.7354ZM32.6934 32.8588C32.6977 32.902 32.6708 32.9466 32.632 32.9627C32.632 32.9627 30.4729 33.9541 27.0433 32.9069C27.1667 33.9349 28.4133 34.3245 29.2843 34.4655C33.534 35.1873 37.5071 32.7885 38.4014 32.1844C38.5549 32.0807 38.3995 32.3473 38.3717 32.3865C37.277 33.7806 34.3337 35.3949 30.5047 35.3942C28.8347 35.3935 27.1655 34.8131 26.5528 33.9206C25.6021 32.5363 26.5055 30.5151 28.0901 30.7255C30.7685 31.024 33.5144 30.7997 35.9938 29.6637C38.1557 28.673 38.9724 27.5833 38.8496 26.7006C38.6591 25.3325 36.6308 25.1186 35.6056 24.786C35.1595 24.6404 34.9393 24.5241 34.8892 23.6957C34.8673 23.3341 34.8038 22.0723 34.7805 21.5505C34.7396 20.6371 34.6281 19.3879 33.8432 18.8723C33.6385 18.7379 33.4112 18.6731 33.172 18.6605C32.9812 18.6514 32.8681 18.6776 32.8072 18.6917C32.7936 18.6949 32.7826 18.6974 32.7739 18.6988C32.3501 18.77 32.0904 18.9844 31.7841 19.2372C31.7665 19.2518 31.7487 19.2665 31.7307 19.2813C30.7517 20.0867 29.9252 20.2184 29.0055 20.1794C28.7191 20.1674 28.4239 20.1388 28.1125 20.1086C27.8261 20.0808 27.5259 20.0517 27.2064 20.0331L26.8161 20.0108C25.276 19.9327 23.6244 21.2453 23.3498 23.1097C23.043 25.1908 24.2062 26.4655 24.9627 27.2944C25.1496 27.4993 25.3117 27.6769 25.4207 27.8328C25.4905 27.9268 25.5717 28.0592 25.5717 28.1853C25.5717 28.3358 25.4729 28.4549 25.3762 28.5566C23.8051 30.1514 23.3025 32.6854 23.8947 34.7971C23.9688 35.0605 24.0627 35.3127 24.1735 35.5537C25.5625 38.7579 29.8723 40.2503 34.0818 38.8931C37.032 37.9418 39.6386 35.6432 40.1694 32.4722C40.2958 31.6459 40.1101 31.3268 39.8575 31.1728C39.59 31.0105 39.2695 31.0669 39.2695 31.0669C39.2695 31.0669 39.1234 30.0797 38.7098 29.1823C37.4824 30.1382 35.9028 30.8098 34.7001 31.1505C32.7731 31.6962 30.6916 31.9086 28.7004 31.6513C27.8927 31.547 27.3501 31.4768 27.1175 32.2227C29.7735 33.1828 32.5847 32.7718 32.5847 32.7718C32.6391 32.7662 32.6878 32.8052 32.6934 32.8588ZM25.0304 14.228C23.5778 14.9617 21.9558 16.268 20.6388 17.7708C20.5922 17.8245 20.6613 17.8983 20.7185 17.8572C21.8563 17.04 23.4161 16.2806 25.4595 15.7887C27.7485 15.2376 29.952 15.4689 31.298 15.7734C31.3658 15.7887 31.4081 15.6737 31.3481 15.6403C30.4588 15.1477 29.0937 14.8133 28.1254 14.8063C28.0781 14.8056 28.0513 14.7513 28.0795 14.7137C28.2468 14.4914 28.4762 14.2719 28.6858 14.1131C28.7324 14.0769 28.7041 14.0023 28.6448 14.0058C27.4402 14.0788 24.6888 15.3334 24.6986 15.2877C24.7692 14.9533 24.9915 14.5116 25.1066 14.3054C25.1341 14.2566 25.0805 14.203 25.0304 14.228Z" fill="black"/>
</svg>
