<svg width="52" height="51" viewBox="0 0 52 51" fill="none" xmlns="http://www.w3.org/2000/svg">
<g clip-path="url(#clip0_222_8598)">
<path d="M33.8046 5.00666C33.8046 3.61487 32.2463 3.61486 31.5537 3.78883C32.5233 3.02335 33.6603 3.20894 34.0643 3.4409L43.4278 8.03211C44.32 8.46958 44.8859 9.37983 44.8859 10.3774V40.5809C44.8859 41.5917 44.3049 42.5117 43.3946 42.9421L34.5838 47.1082C33.9777 47.3691 32.6618 48.0128 31.5537 47.1082C32.9389 47.3691 33.6892 46.3833 33.8046 45.7164V5.00666Z" fill="url(#paint0_linear_222_8598)"/>
<path d="M31.6659 3.76095C32.401 3.61569 33.8045 3.68305 33.8045 5.00387V15.4003L5.41617 36.8762C4.91997 37.2516 4.22165 37.1893 3.799 36.7319L0.873182 33.566C0.414825 33.07 0.446895 32.2937 0.944582 31.8376L31.5536 3.78604L31.6659 3.76095Z" fill="url(#paint1_linear_222_8598)"/>
<path d="M33.8045 35.4943L5.41617 14.0184C4.91997 13.643 4.22164 13.7053 3.799 14.1626L0.873182 17.3286C0.414825 17.8245 0.446895 18.6009 0.944582 19.057L31.5536 47.1085C32.9387 47.3695 33.689 46.3836 33.8045 45.7167V35.4943Z" fill="url(#paint2_linear_222_8598)"/>
</g>
<defs>
<linearGradient id="paint0_linear_222_8598" x1="38.2198" y1="3.23828" x2="38.2198" y2="47.5747" gradientUnits="userSpaceOnUse">
<stop stop-color="#32B5F1"/>
<stop offset="1" stop-color="#2B9FED"/>
</linearGradient>
<linearGradient id="paint1_linear_222_8598" x1="33.8045" y1="8.83126" x2="2.16713" y2="35.3874" gradientUnits="userSpaceOnUse">
<stop stop-color="#0F6FB3"/>
<stop offset="0.270551" stop-color="#1279B7"/>
<stop offset="0.421376" stop-color="#1176B5"/>
<stop offset="0.618197" stop-color="#0E69AC"/>
<stop offset="0.855344" stop-color="#0F70AF"/>
<stop offset="1" stop-color="#0F6DAD"/>
</linearGradient>
<linearGradient id="paint2_linear_222_8598" x1="2.37854" y1="15.8803" x2="33.9269" y2="42.0023" gradientUnits="userSpaceOnUse">
<stop stop-color="#1791D2"/>
<stop offset="1" stop-color="#1173C5"/>
</linearGradient>
<clipPath id="clip0_222_8598">
<rect width="50.6702" height="50.6702" fill="white" transform="translate(0.549316 0.0703125)"/>
</clipPath>
</defs>
</svg>
