<svg width="20" height="20" viewBox="0 0 20 20" fill="none" xmlns="http://www.w3.org/2000/svg">
<path d="M17.518 10.1049C17.518 9.51129 17.4689 9.07812 17.3625 8.62891H10.4458V11.3081H14.5058C14.4239 11.974 13.9819 12.9767 12.9996 13.6505L12.9859 13.7402L15.1728 15.4005L15.3243 15.4153C16.7158 14.1559 17.518 12.3028 17.518 10.1049Z" fill="#4285F4"/>
<path d="M10.4454 17.1648C12.4344 17.1648 14.1042 16.523 15.3239 15.416L12.9992 13.6512C12.3771 14.0764 11.5422 14.3732 10.4454 14.3732C8.49724 14.3732 6.8438 13.1138 6.25439 11.373L6.16799 11.3802L3.894 13.1049L3.86426 13.186C5.07569 15.5444 7.56406 17.1648 10.4454 17.1648Z" fill="#34A853"/>
<path d="M6.25551 11.3737C6.09999 10.9245 6.00999 10.4432 6.00999 9.94585C6.00999 9.44847 6.09999 8.96719 6.24733 8.51798L6.24321 8.42231L3.94071 6.66992L3.86537 6.70504C3.36608 7.6837 3.07959 8.7827 3.07959 9.94585C3.07959 11.109 3.36608 12.2079 3.86537 13.1866L6.25551 11.3737Z" fill="#FBBC05"/>
<path d="M10.4454 5.51616C11.8287 5.51616 12.7618 6.10174 13.2939 6.5911L15.373 4.6017C14.0961 3.43855 12.4344 2.72461 10.4454 2.72461C7.56408 2.72461 5.07569 4.34499 3.86426 6.70336L6.24622 8.5163C6.84381 6.77559 8.49726 5.51616 10.4454 5.51616Z" fill="#EB4335"/>
</svg>
