<svg width="20" height="20" viewBox="0 0 20 20" fill="none" xmlns="http://www.w3.org/2000/svg">
<circle cx="10.2978" cy="9.99901" r="8.42283" fill="#028CB0"/>
<path d="M4.55578 9.9988C4.55578 12.2744 5.87937 14.2343 7.79348 15.1659L5.05467 7.66216C4.7258 8.39725 4.5558 9.19349 4.55578 9.9988ZM10.2981 15.7411C10.965 15.7411 11.6064 15.6241 12.2071 15.4153L12.1664 15.339L10.3999 10.5028L8.67927 15.507C9.18834 15.6597 9.73305 15.7411 10.2981 15.7411ZM11.0872 7.30581L13.1642 13.4809L13.7394 11.5667C13.9838 10.7726 14.1722 10.2024 14.1722 9.70863C14.1722 8.99593 13.9176 8.50722 13.7038 8.1305C13.4085 7.65198 13.1387 7.24981 13.1387 6.78146C13.1387 6.25203 13.5358 5.76332 14.106 5.76332H14.1772C13.1192 4.79196 11.7345 4.25407 10.2981 4.25646C9.34707 4.25629 8.4109 4.49253 7.57382 4.94395C6.73674 5.39537 6.02501 6.0478 5.50265 6.84255L5.86919 6.85273C6.46989 6.85273 7.3964 6.77637 7.3964 6.77637C7.71203 6.7611 7.74766 7.21417 7.43713 7.24981C7.43713 7.24981 7.1266 7.29054 6.77534 7.30581L8.87271 13.5267L10.1301 9.75954L9.23416 7.30581C9.03346 7.29473 8.83314 7.27776 8.63345 7.2549C8.32292 7.23454 8.35855 6.7611 8.66909 6.77637C8.66909 6.77637 9.61596 6.85273 10.181 6.85273C10.7817 6.85273 11.7082 6.77637 11.7082 6.77637C12.0188 6.7611 12.0595 7.21417 11.749 7.24981C11.749 7.24981 11.4384 7.28544 11.0872 7.30581ZM13.1846 14.9623C14.0533 14.4571 14.7742 13.7329 15.2754 12.8619C15.7765 11.9909 16.0403 11.0037 16.0405 9.9988C16.0405 9.00102 15.7859 8.06433 15.3379 7.24472C15.4289 8.14643 15.2924 9.05656 14.9409 9.89189L13.1846 14.9623ZM10.2981 16.6167C8.54293 16.6167 6.85963 15.9195 5.61853 14.6784C4.37742 13.4373 3.68018 11.754 3.68018 9.9988C3.68018 8.24361 4.37742 6.56031 5.61853 5.31921C6.85963 4.0781 8.54293 3.38086 10.2981 3.38086C12.0533 3.38086 13.7366 4.0781 14.9777 5.31921C16.2188 6.56031 16.9161 8.24361 16.9161 9.9988C16.9161 11.754 16.2188 13.4373 14.9777 14.6784C13.7366 15.9195 12.0533 16.6167 10.2981 16.6167Z" fill="white"/>
</svg>
