<svg width="51" height="51" viewBox="0 0 51 51" fill="none" xmlns="http://www.w3.org/2000/svg">
<circle cx="25.6546" cy="25.4065" r="22.1682" fill="#028CB0"/>
<path d="M10.5408 25.4062C10.5408 31.3952 14.0244 36.5536 19.0622 39.0055L11.8539 19.2563C10.9883 21.191 10.5409 23.2867 10.5408 25.4062ZM25.6542 40.5195C27.4094 40.5195 29.0976 40.2114 30.6786 39.662L30.5714 39.4611L25.9222 26.7326L21.3935 39.9032C22.7334 40.3052 24.167 40.5195 25.6542 40.5195ZM27.731 18.3184L33.1975 34.5707L34.7115 29.5329C35.3546 27.4427 35.8504 25.9421 35.8504 24.6425C35.8504 22.7667 35.1805 21.4804 34.6177 20.489C33.8406 19.2295 33.1305 18.171 33.1305 16.9384C33.1305 15.545 34.1756 14.2587 35.6762 14.2587H35.8638C33.079 11.7022 29.4345 10.2865 25.6542 10.2928C23.1511 10.2923 20.6872 10.9141 18.4841 12.1022C16.281 13.2903 14.4077 15.0075 13.0329 17.0992L13.9976 17.126C15.5786 17.126 18.0171 16.925 18.0171 16.925C18.8478 16.8848 18.9416 18.0773 18.1243 18.171C18.1243 18.171 17.307 18.2782 16.3825 18.3184L21.9027 34.6912L25.2121 24.7764L22.854 18.3184C22.3258 18.2893 21.7985 18.2446 21.2729 18.1844C20.4556 18.1309 20.5494 16.8848 21.3667 16.925C21.3667 16.925 23.8588 17.126 25.3461 17.126C26.9271 17.126 29.3656 16.925 29.3656 16.925C30.1829 16.8848 30.2901 18.0773 29.4728 18.171C29.4728 18.171 28.6555 18.2648 27.731 18.3184ZM33.2511 38.4696C35.5375 37.1402 37.4349 35.2341 38.7539 32.9417C40.0729 30.6493 40.7673 28.0509 40.7676 25.4062C40.7676 22.7801 40.0977 20.3148 38.9186 18.1576C39.1581 20.5309 38.7987 22.9263 37.8735 25.1248L33.2511 38.4696ZM25.6542 42.8241C21.0347 42.8241 16.6044 40.989 13.3379 37.7225C10.0714 34.456 8.23633 30.0257 8.23633 25.4062C8.23633 20.7867 10.0714 16.3564 13.3379 13.0899C16.6044 9.82338 21.0347 7.98828 25.6542 7.98828C30.2737 7.98828 34.704 9.82338 37.9705 13.0899C41.237 16.3564 43.0721 20.7867 43.0721 25.4062C43.0721 30.0257 41.237 34.456 37.9705 37.7225C34.704 40.989 30.2737 42.8241 25.6542 42.8241Z" fill="white"/>
</svg>
