<svg width="20" height="20" viewBox="0 0 20 20" fill="none" xmlns="http://www.w3.org/2000/svg">
<path d="M16.615 9.50447C17.4456 9.50447 18.119 8.83113 18.119 8.00052C18.119 7.16991 17.4456 6.49657 16.615 6.49657C15.7843 6.49657 15.1108 7.16997 15.1108 8.00065V9.50447H16.615ZM12.4035 9.50447C13.2342 9.50447 13.9076 8.83107 13.9076 8.00039V3.78923C13.9076 2.95855 13.2342 2.28516 12.4035 2.28516C11.5728 2.28516 10.8994 2.95855 10.8994 3.78923V8.00039C10.8994 8.83107 11.5728 9.50447 12.4035 9.50447Z" fill="#2EB67D"/>
<path d="M3.98067 10.7084C3.15006 10.7084 2.47672 11.3818 2.47672 12.2124C2.47672 13.043 3.15012 13.7163 3.98073 13.7163C4.81141 13.7163 5.48487 13.0429 5.48487 12.2122V10.7084H3.98067ZM8.19221 10.7084C7.36153 10.7084 6.68813 11.3818 6.68813 12.2125V16.4237C6.68813 17.2543 7.36153 17.9277 8.19221 17.9277C9.02289 17.9277 9.69629 17.2543 9.69629 16.4237V12.2125C9.69629 11.3818 9.02289 10.7084 8.19221 10.7084Z" fill="#E01E5A"/>
<path d="M10.8998 16.4246C10.8998 17.2552 11.5732 17.9286 12.4038 17.9286C13.2344 17.9286 13.9077 17.2552 13.9077 16.4245C13.9077 15.5939 13.2343 14.9204 12.4036 14.9204L10.8998 14.9204L10.8998 16.4246ZM10.8998 12.2131C10.8998 13.0437 11.5732 13.7171 12.4039 13.7171L16.6151 13.7171C17.4457 13.7171 18.1191 13.0437 18.1191 12.2131C18.1191 11.3824 17.4457 10.709 16.6151 10.709L12.4039 10.709C11.5732 10.709 10.8998 11.3824 10.8998 12.2131Z" fill="#ECB22E"/>
<path d="M9.69588 3.79024C9.69588 2.95963 9.02254 2.28629 8.19193 2.28629C7.36132 2.28629 6.68798 2.95969 6.68798 3.7903C6.68798 4.62098 7.36138 5.29444 8.19206 5.29444L9.69588 5.29444L9.69588 3.79024ZM9.69588 8.00178C9.69588 7.1711 9.02248 6.4977 8.1918 6.4977L3.98064 6.4977C3.14996 6.4977 2.47656 7.1711 2.47656 8.00178C2.47656 8.83246 3.14996 9.50586 3.98064 9.50586L8.1918 9.50586C9.02248 9.50586 9.69588 8.83246 9.69588 8.00178Z" fill="#36C5F0"/>
</svg>
