<svg width="52" height="51" viewBox="0 0 52 51" fill="none" xmlns="http://www.w3.org/2000/svg">
<circle cx="25.9607" cy="25.637" r="22.1682" fill="#00A82D"/>
<path d="M20.7352 17.7908C20.7352 18.0743 20.7121 18.547 20.4357 18.8542C20.1361 19.1377 19.6753 19.1614 19.3988 19.1614C17.8434 19.1614 15.6858 18.7705 14.2146 19.3741C16.4599 15.3453 20.8094 12.6683 20.7813 12.8991C20.574 14.4933 20.7352 16.1873 20.7352 17.7908ZM25.3894 36.0813C25.3894 34.1199 26.9562 32.513 28.8917 32.513C29.4677 32.513 29.9285 32.9856 29.9285 33.5764C29.9285 33.9781 29.7211 34.309 29.3986 34.498C29.0473 34.7142 28.5607 34.6133 28.2465 34.8997C28.0161 35.0888 27.8318 35.396 27.8318 35.7268C27.8318 36.0813 27.97 36.4121 28.2004 36.6485C28.6152 37.0738 29.1682 37.3101 29.7672 37.3101C31.334 37.3101 32.6013 36.0104 32.6013 34.4035C32.6013 32.962 31.6566 31.6859 30.4124 31.1188C28.5241 30.1504 25.6351 30.7015 25.4125 27.6686C25.0662 29.2728 24.3022 32.1349 22.2328 32.1349C15.9817 32.5158 13.7285 27.4522 13.293 22.0916C13.293 20.9337 13.9842 20.1539 14.8598 20.0357C16.4265 20.0357 17.9933 20.0357 19.5601 20.0357C20.3665 20.0357 20.8273 19.8231 21.1269 19.5395C21.5186 19.1614 21.6107 18.6179 21.6107 17.9798C21.6107 16.3178 21.6107 13.7619 21.6107 12.9936C21.6107 11.9903 22.4863 11.3867 23.6153 11.3867C24.2804 11.3867 24.9046 11.4101 25.5507 11.5758C26.9562 11.9302 27.2558 13.3954 27.2558 13.3954C27.2558 13.3954 29.9055 13.868 31.2418 14.1043C32.5091 14.3406 35.6427 14.5533 36.2417 17.7908C37.6472 25.4945 36.7947 32.962 36.7256 32.962C35.7348 40.2404 29.8363 39.8859 29.8363 39.8859C27.6922 39.8859 25.3894 38.4227 25.3894 36.0813ZM32.3017 23.5331C31.5414 23.4623 30.8962 23.7695 30.6658 24.3602C30.3393 25.1974 33.7072 25.8936 33.7072 24.7383C33.6151 24.0767 33.0621 23.6277 32.3017 23.5331Z" fill="white"/>
</svg>
