<svg width="52" height="52" viewBox="0 0 52 52" fill="none" xmlns="http://www.w3.org/2000/svg">
<g filter="url(#filter0_d_222_8616)">
<path d="M3.56201 19.7719C3.56201 14.2539 3.56201 11.495 4.63587 9.3874C5.58047 7.53352 7.08772 6.02627 8.9416 5.08168C11.0492 4.00781 13.8081 4.00781 19.3261 4.00781H32.1344C37.6523 4.00781 40.4113 4.00781 42.5189 5.08168C44.3728 6.02627 45.88 7.53352 46.8246 9.3874C47.8985 11.495 47.8985 14.2539 47.8985 19.7719V32.5802C47.8985 38.0981 47.8985 40.8571 46.8246 42.9647C45.88 44.8186 44.3728 46.3258 42.5189 47.2704C40.4113 48.3443 37.6523 48.3443 32.1344 48.3443H19.3261C13.8081 48.3443 11.0492 48.3443 8.9416 47.2704C7.08772 46.3258 5.58047 44.8186 4.63587 42.9647C3.56201 40.8571 3.56201 38.0981 3.56201 32.5802V19.7719Z" fill="white"/>
<path d="M25.7331 20.548L20.253 10.8767C20.4349 10.6915 20.6443 10.57 20.8536 10.4883C19.2375 11.0201 18.496 12.8349 18.496 12.8349L8.4847 30.4981C8.34383 31.0519 8.3047 31.5518 8.3223 31.9921H19.2493L25.7331 20.548Z" fill="#34A853"/>
<path d="M25.7329 20.548L32.2167 31.9921H43.1437C43.1613 31.5518 43.1222 31.0519 42.9813 30.4981L32.97 12.8349C32.97 12.8349 32.2265 11.0201 30.6124 10.4883C30.8198 10.57 31.0311 10.6915 31.213 10.8767L25.7329 20.548Z" fill="#FBBC05"/>
<path d="M25.7331 20.5547L31.2132 10.8834C31.0312 10.6982 30.8199 10.5767 30.6125 10.495C30.3738 10.4173 30.1175 10.3655 29.8397 10.3516H29.5502H21.9159H21.6264C21.3505 10.3635 21.0923 10.4153 20.8536 10.495C20.6462 10.5767 20.4349 10.6982 20.2529 10.8834L25.7331 20.5547Z" fill="#188038"/>
<path d="M19.2513 31.9922L13.8337 41.5539C13.8337 41.5539 13.6537 41.4662 13.4092 41.2849C14.1781 41.8766 14.9255 42.0021 14.9255 42.0021H36.2023C37.3762 42.0021 37.6207 41.5539 37.6207 41.5539C37.6246 41.5519 37.6266 41.5499 37.6305 41.5479L32.2169 31.9922H19.2513Z" fill="#4285F4"/>
<path d="M19.2517 31.9922H8.32471C8.37949 33.291 8.94296 34.0499 8.94296 34.0499L9.35382 34.7631C9.38317 34.8049 9.40077 34.8288 9.40077 34.8288L10.2949 36.3985L12.3022 39.8925C12.3609 40.034 12.4294 40.1634 12.5018 40.2869C12.5292 40.3288 12.5546 40.3746 12.584 40.4144C12.5918 40.4264 12.5996 40.4383 12.6075 40.4503C12.8559 40.8009 13.1338 41.0718 13.4116 41.2849C13.6561 41.4682 13.8361 41.5539 13.8361 41.5539L19.2517 31.9922Z" fill="#1967D2"/>
<path d="M32.2168 31.9922H43.1438C43.089 33.291 42.5255 34.0499 42.5255 34.0499L42.1147 34.7631C42.0853 34.8049 42.0677 34.8288 42.0677 34.8288L41.1736 36.3985L39.1662 39.8925C39.1075 40.034 39.0391 40.1634 38.9667 40.2869C38.9393 40.3288 38.9138 40.3746 38.8845 40.4144C38.8767 40.4264 38.8688 40.4383 38.861 40.4503C38.6125 40.8009 38.3347 41.0718 38.0569 41.2849C37.8123 41.4682 37.6324 41.5539 37.6324 41.5539L32.2168 31.9922Z" fill="#EA4335"/>
</g>
<defs>
<filter id="filter0_d_222_8616" x="-1.60498" y="-0.160156" width="54.6704" height="54.6719" filterUnits="userSpaceOnUse" color-interpolation-filters="sRGB">
<feFlood flood-opacity="0" result="BackgroundImageFix"/>
<feColorMatrix in="SourceAlpha" type="matrix" values="0 0 0 0 0 0 0 0 0 0 0 0 0 0 0 0 0 0 127 0" result="hardAlpha"/>
<feOffset dy="1"/>
<feGaussianBlur stdDeviation="1"/>
<feColorMatrix type="matrix" values="0 0 0 0 0.0627451 0 0 0 0 0.0941176 0 0 0 0 0.156863 0 0 0 0.05 0"/>
<feBlend mode="normal" in2="BackgroundImageFix" result="effect1_dropShadow_222_8616"/>
<feBlend mode="normal" in="SourceGraphic" in2="effect1_dropShadow_222_8616" result="shape"/>
</filter>
</defs>
</svg>
