<svg width="51" height="52" viewBox="0 0 51 52" fill="none" xmlns="http://www.w3.org/2000/svg">
<g filter="url(#filter0_d_222_8638)">
<path d="M3.33203 19.7719C3.33203 14.2539 3.33203 11.495 4.40589 9.3874C5.35049 7.53352 6.85774 6.02627 8.71161 5.08168C10.8192 4.00781 13.5782 4.00781 19.0961 4.00781H31.9044C37.4224 4.00781 40.1813 4.00781 42.2889 5.08168C44.1428 6.02627 45.65 7.53352 46.5946 9.3874C47.6685 11.495 47.6685 14.2539 47.6685 19.7719V32.5802C47.6685 38.0981 47.6685 40.8571 46.5946 42.9647C45.65 44.8186 44.1428 46.3258 42.2889 47.2704C40.1813 48.3443 37.4224 48.3443 31.9044 48.3443H19.0961C13.5782 48.3443 10.8192 48.3443 8.71161 47.2704C6.85774 46.3258 5.35049 44.8186 4.40589 42.9647C3.33203 40.8571 3.33203 38.0981 3.33203 32.5802V19.7719Z" fill="white"/>
<path d="M38.9481 10.3359H33.7998V17.7959H41.333V12.4395C41.335 12.4395 40.9607 10.5394 38.9481 10.3359Z" fill="#1967D2"/>
<path d="M33.8018 41.9723V41.9906V42.0069L41.335 34.5469H41.2675L33.8018 41.9723Z" fill="#1967D2"/>
<path d="M41.334 34.5434V34.4766L41.2671 34.5434H41.334Z" fill="#FBBC05"/>
<path d="M41.335 17.7969H33.8018V34.4786H41.335V17.7969Z" fill="#FBBC05"/>
<path d="M41.2675 34.5469H33.8018V41.9723L41.2675 34.5469Z" fill="#EA4335"/>
<path d="M33.8018 34.5434H41.2675L41.335 34.4766H33.8018V34.5434Z" fill="#EA4335"/>
<path d="M33.7832 41.987H33.8014V41.9688L33.7832 41.987Z" fill="#34A853"/>
<path d="M17.0293 34.4766V41.9874H33.7831L33.8016 34.4766H17.0293Z" fill="#34A853"/>
<path d="M33.8014 34.5437V34.4766L33.7832 41.9874L33.8014 41.9691V34.5437Z" fill="#34A853"/>
<path d="M9.66602 34.4766V39.6988C9.73351 41.3934 11.5662 41.9874 11.5662 41.9874H17.0294V34.4766H9.66602Z" fill="#188038"/>
<path d="M17.0294 17.7959H33.8017V10.3359H11.7789C11.7789 10.3359 9.80101 10.5394 9.66602 12.6409V34.4777H17.0294V17.7959Z" fill="#4285F4"/>
<path d="M22.5167 31.103C22.133 31.103 21.763 31.053 21.4067 30.9531C21.0595 30.8531 20.7397 30.7032 20.4474 30.5033C20.155 30.2943 19.8946 30.0353 19.6662 29.7263C19.447 29.4174 19.2779 29.0585 19.1592 28.6495L20.8448 27.9817C20.9636 28.436 21.1646 28.7813 21.4478 29.0176C21.731 29.2447 22.0873 29.3583 22.5167 29.3583C22.7086 29.3583 22.8913 29.3311 23.0649 29.2765C23.2385 29.2129 23.3892 29.1266 23.5171 29.0176C23.645 28.9085 23.7455 28.7813 23.8186 28.6359C23.9008 28.4814 23.9419 28.3088 23.9419 28.118C23.9419 27.7181 23.7912 27.4047 23.4897 27.1775C23.1973 26.9503 22.7908 26.8367 22.27 26.8367H21.4615V25.2147H22.2015C22.3842 25.2147 22.5624 25.192 22.736 25.1466C22.9096 25.1011 23.0603 25.033 23.1882 24.9421C23.3252 24.8422 23.4303 24.7195 23.5034 24.5741C23.5856 24.4196 23.6267 24.2424 23.6267 24.0425C23.6267 23.7336 23.5171 23.4837 23.2978 23.2929C23.0786 23.093 22.7816 22.993 22.4071 22.993C22.0051 22.993 21.6945 23.102 21.4752 23.3201C21.2651 23.5291 21.1189 23.7654 21.0367 24.0289L19.3922 23.361C19.4744 23.1339 19.5977 22.9021 19.7622 22.6659C19.9266 22.4205 20.1322 22.2025 20.3789 22.0116C20.6347 21.8117 20.9316 21.6527 21.2696 21.5346C21.6077 21.4074 21.9959 21.3438 22.4345 21.3438C22.8821 21.3438 23.2887 21.4074 23.6541 21.5346C24.0287 21.6618 24.3485 21.839 24.6134 22.0662C24.8784 22.2842 25.0839 22.5478 25.2301 22.8567C25.3763 23.1566 25.4494 23.4837 25.4494 23.8381C25.4494 24.1107 25.4128 24.356 25.3398 24.5741C25.2758 24.7922 25.189 24.9876 25.0794 25.1602C24.9697 25.3329 24.8418 25.4828 24.6957 25.61C24.5586 25.7281 24.417 25.8235 24.2708 25.8962V26.0053C24.7094 26.1779 25.0702 26.4551 25.3535 26.8367C25.6458 27.2184 25.792 27.7 25.792 28.2815C25.792 28.6904 25.7143 29.0675 25.559 29.4128C25.4037 29.7491 25.1799 30.0444 24.8875 30.2988C24.6043 30.5532 24.2617 30.7486 23.8597 30.8849C23.4577 31.0303 23.01 31.103 22.5167 31.103Z" fill="#4285F4"/>
<path d="M29.0646 30.8849V23.6609L27.4064 24.356L26.7486 22.8431L29.5031 21.5618H30.8599V30.8849H29.0646Z" fill="#4285F4"/>
</g>
<defs>
<filter id="filter0_d_222_8638" x="-1.83496" y="-0.160156" width="54.6704" height="54.6719" filterUnits="userSpaceOnUse" color-interpolation-filters="sRGB">
<feFlood flood-opacity="0" result="BackgroundImageFix"/>
<feColorMatrix in="SourceAlpha" type="matrix" values="0 0 0 0 0 0 0 0 0 0 0 0 0 0 0 0 0 0 127 0" result="hardAlpha"/>
<feOffset dy="1"/>
<feGaussianBlur stdDeviation="1"/>
<feColorMatrix type="matrix" values="0 0 0 0 0.0627451 0 0 0 0 0.0941176 0 0 0 0 0.156863 0 0 0 0.05 0"/>
<feBlend mode="normal" in2="BackgroundImageFix" result="effect1_dropShadow_222_8638"/>
<feBlend mode="normal" in="SourceGraphic" in2="effect1_dropShadow_222_8638" result="shape"/>
</filter>
</defs>
</svg>
