<svg width="20" height="20" viewBox="0 0 20 20" fill="none" xmlns="http://www.w3.org/2000/svg">
<path d="M10.2978 1.63086C5.65211 1.63086 1.875 5.40797 1.875 10.0537C1.875 14.6994 5.65211 18.4765 10.2978 18.4765C14.9436 18.4765 18.7207 14.6994 18.7207 10.0537C18.7207 5.40797 14.9436 1.63086 10.2978 1.63086Z" fill="#00AF87"/>
<path d="M6.68826 10.6548C6.68826 10.2993 6.96173 10.0531 7.28989 10.0531C7.61806 10.0531 7.89152 10.2993 7.89152 10.6548C7.89152 11.0103 7.6454 11.2564 7.28989 11.2564C6.93438 11.2564 6.68826 10.9829 6.68826 10.6548Z" fill="white"/>
<path fill-rule="evenodd" clip-rule="evenodd" d="M7.28989 8.84988C6.30541 8.84988 5.485 9.58825 5.485 10.6548C5.485 11.6393 6.22337 12.4597 7.28989 12.4597C8.35642 12.4597 9.09479 11.7213 9.09479 10.6548C9.09479 9.58825 8.27438 8.84988 7.28989 8.84988ZM7.28989 9.45151C6.63357 9.45151 6.08663 9.94376 6.08663 10.6548C6.08663 11.3111 6.57887 11.858 7.28989 11.858C8.00091 11.858 8.49316 11.3658 8.49316 10.6548C8.49316 9.94376 7.94622 9.45151 7.28989 9.45151Z" fill="white"/>
<path d="M13.9078 10.6548C13.9078 10.2993 13.6344 10.0531 13.3062 10.0531C12.978 10.0531 12.7046 10.2993 12.7046 10.6548C12.7046 11.0103 12.9507 11.2564 13.3062 11.2564C13.6617 11.2564 13.9078 10.9829 13.9078 10.6548Z" fill="white"/>
<path fill-rule="evenodd" clip-rule="evenodd" d="M13.3062 8.84988C14.2907 8.84988 15.1111 9.58825 15.1111 10.6548C15.1111 11.6393 14.3727 12.4597 13.3062 12.4597C12.2397 12.4597 11.5013 11.7213 11.5013 10.6548C11.5013 9.58825 12.3217 8.84988 13.3062 8.84988ZM13.3062 9.45151C13.9625 9.45151 14.5095 9.94376 14.5095 10.6548C14.5095 11.3111 14.0172 11.858 13.3062 11.858C12.5952 11.858 12.1029 11.3658 12.1029 10.6548C12.1029 9.94376 12.6499 9.45151 13.3062 9.45151Z" fill="white"/>
<path fill-rule="evenodd" clip-rule="evenodd" d="M6.08663 7.63688C7.20032 6.9323 8.75252 6.44336 10.298 6.44336C11.8436 6.44336 13.3958 6.9323 14.5095 7.63688L16.3144 7.64662L15.6733 8.84147C16.037 9.31877 16.3144 9.99566 16.3144 10.6548C16.3144 12.3139 14.9005 13.6629 13.2868 13.6629C12.3322 13.6629 11.4679 13.1188 10.8997 12.4597L10.298 13.6629L9.69642 12.4597C9.12821 13.1188 8.26386 13.6629 7.30927 13.6629C5.69556 13.6629 4.28174 12.3139 4.28174 10.6548C4.28174 9.99566 4.55914 9.31877 4.9228 8.84147L4.28174 7.64662L6.08663 7.63688ZM10.298 10.354C10.4117 8.83117 11.7413 7.66935 13.2868 7.64662C12.4459 7.28297 11.3663 7.04499 10.298 7.04499C9.22982 7.04499 8.15021 7.28297 7.30927 7.64662C8.85479 7.66935 10.1844 8.83117 10.298 10.354ZM7.30927 13.072C5.99103 13.072 4.88337 11.973 4.88337 10.6548C4.88337 9.33654 5.99103 8.22781 7.30927 8.22781C8.62751 8.22781 9.69574 9.33654 9.69574 10.6548C9.69574 11.9503 8.62751 13.072 7.30927 13.072ZM13.2868 13.072C14.6051 13.072 15.7127 11.973 15.7127 10.6548C15.7127 9.33654 14.6051 8.22781 13.2868 8.22781C11.9686 8.22781 10.9004 9.33654 10.9004 10.6548C10.9004 11.9503 11.9686 13.072 13.2868 13.072Z" fill="white"/>
</svg>
