<svg width="52" height="51" viewBox="0 0 52 51" fill="none" xmlns="http://www.w3.org/2000/svg">
<path d="M48.2832 23.0862H34.7769L46.4734 16.3323L44.1539 12.3125L32.456 19.0664L39.2076 7.36896L35.1891 5.04869L28.436 16.7432V3.23828H23.794V16.7446L17.0409 5.04869L13.0209 7.36896L19.7726 19.0634L8.07756 12.3125L5.75658 16.3323L17.4531 23.0862H3.94678V27.7283H17.4516L5.75658 34.4822L8.07608 38.502L19.774 31.7481L13.0209 43.4455L17.0394 45.7658L23.794 34.0698V47.5747H28.436V33.7802L35.3132 45.6919L39.082 43.5165L32.2033 31.6018L44.151 38.5005L46.4719 34.4807L34.7769 27.7268H48.2817V23.0862H48.2832ZM26.115 31.7171C25.2864 31.7172 24.4658 31.554 23.7002 31.2369C22.9346 30.9198 22.239 30.4549 21.653 29.8688C21.067 29.2828 20.6021 28.587 20.2849 27.8212C19.9677 27.0554 19.8044 26.2347 19.8043 25.4058C19.8042 24.5769 19.9674 23.756 20.2844 22.9902C20.6014 22.2244 21.0661 21.5285 21.6519 20.9423C22.2378 20.3561 22.9334 19.8911 23.6989 19.5738C24.4644 19.2565 25.2849 19.0931 26.1135 19.093C27.787 19.0928 29.3921 19.7576 30.5755 20.9412C31.759 22.1248 32.424 23.7302 32.4242 25.4043C32.4244 27.0783 31.7598 28.6839 30.5766 29.8678C29.3934 31.0517 27.7885 31.7169 26.115 31.7171Z" fill="#625DF5"/>
</svg>
