<svg width="52" height="51" viewBox="0 0 52 51" fill="none" xmlns="http://www.w3.org/2000/svg">
<g filter="url(#filter0_d_222_8562)">
<path d="M4.10156 19.2328C4.10156 13.7149 4.10156 10.9559 5.17543 8.84833C6.12002 6.99446 7.62727 5.48721 9.48115 4.54261C11.5887 3.46875 14.3477 3.46875 19.8656 3.46875H32.6739C38.1919 3.46875 40.9509 3.46875 43.0584 4.54261C44.9123 5.48721 46.4196 6.99446 47.3642 8.84833C48.438 10.9559 48.438 13.7149 48.438 19.2328V32.0411C48.438 37.5591 48.438 40.318 47.3642 42.4256C46.4196 44.2795 44.9123 45.7867 43.0584 46.7313C40.9509 47.8052 38.1919 47.8052 32.6739 47.8052H19.8656C14.3477 47.8052 11.5887 47.8052 9.48115 46.7313C7.62727 45.7867 6.12002 44.2795 5.17543 42.4256C4.10156 40.318 4.10156 37.5591 4.10156 32.0411V19.2328Z" fill="white"/>
<path d="M35.8516 13.7969L26.3713 21.1954L16.6743 13.7969V13.7989L16.686 13.8089V24.1688L26.262 31.7273L35.8516 24.4607V13.7969Z" fill="#EA4335"/>
<path d="M38.3407 11.9985L35.8511 13.7982V24.462L43.6852 18.4472V14.824C43.6852 14.824 42.7343 9.64901 38.3407 11.9985Z" fill="#FBBC05"/>
<path d="M35.8511 24.4601V38.2913H41.8556C41.8556 38.2913 43.5642 38.1154 43.6872 36.1678V18.4453L35.8511 24.4601Z" fill="#34A853"/>
<path d="M16.6865 38.3053V24.1702L16.6743 24.1602L16.6865 38.3053Z" fill="#C5221F"/>
<path d="M16.674 13.804L14.198 12.0143C9.80447 9.66481 8.85156 14.8378 8.85156 14.8378V18.4611L16.674 24.1639V13.804Z" fill="#C5221F"/>
<path d="M16.6743 13.7969V24.1568L16.6865 24.1668V13.8069L16.6743 13.7969Z" fill="#C5221F"/>
<path d="M8.85156 18.4609V36.1834C8.97263 38.133 10.6832 38.307 10.6832 38.307H16.6877L16.674 24.1618L8.85156 18.4609Z" fill="#4285F4"/>
</g>
<defs>
<filter id="filter0_d_222_8562" x="-1.06543" y="-0.699219" width="54.6704" height="54.6719" filterUnits="userSpaceOnUse" color-interpolation-filters="sRGB">
<feFlood flood-opacity="0" result="BackgroundImageFix"/>
<feColorMatrix in="SourceAlpha" type="matrix" values="0 0 0 0 0 0 0 0 0 0 0 0 0 0 0 0 0 0 127 0" result="hardAlpha"/>
<feOffset dy="1"/>
<feGaussianBlur stdDeviation="1"/>
<feColorMatrix type="matrix" values="0 0 0 0 0.0627451 0 0 0 0 0.0941176 0 0 0 0 0.156863 0 0 0 0.05 0"/>
<feBlend mode="normal" in2="BackgroundImageFix" result="effect1_dropShadow_222_8562"/>
<feBlend mode="normal" in="SourceGraphic" in2="effect1_dropShadow_222_8562" result="shape"/>
</filter>
</defs>
</svg>
