<svg width="20" height="18" viewBox="0 0 20 18" fill="none" xmlns="http://www.w3.org/2000/svg">
<path d="M10.029 13.2319C10.2684 13.2319 10.4687 13.0414 10.4687 12.8069V9.55767H13.6251C13.8596 9.55767 14.06 9.35734 14.06 9.11793C14.06 8.87851 13.8596 8.68307 13.6251 8.68307H10.4687V5.42899C10.4687 5.19446 10.2684 5.00391 10.029 5.00391C9.78959 5.00391 9.59415 5.19446 9.59415 5.42899V8.68307H6.4329C6.19837 8.68307 5.99805 8.87851 5.99805 9.11793C5.99805 9.35734 6.19837 9.55767 6.4329 9.55767H9.59415V12.8069C9.59415 13.0414 9.78959 13.2319 10.029 13.2319Z" fill="#737373"/>
</svg>
