<svg width="20" height="18" viewBox="0 0 20 18" fill="none" xmlns="http://www.w3.org/2000/svg">
<path d="M9.89493 10.4403C10.105 10.4403 10.2809 10.2644 10.2809 10.0591V5.04122L10.2516 4.30832L10.5839 4.65522L11.3216 5.44676C11.39 5.52493 11.4927 5.56402 11.5855 5.56402C11.7907 5.56402 11.9422 5.41744 11.9422 5.21711C11.9422 5.11451 11.9031 5.03633 11.8298 4.96304L10.1783 3.3702C10.0806 3.27248 9.99265 3.23828 9.89493 3.23828C9.79721 3.23828 9.70926 3.27248 9.61154 3.3702L7.96007 4.96304C7.88678 5.03633 7.8428 5.11451 7.8428 5.21711C7.8428 5.41744 7.99427 5.56402 8.1946 5.56402C8.29232 5.56402 8.39492 5.52493 8.46333 5.44676L9.206 4.65522L9.53825 4.30832L9.50405 5.04122V10.0591C9.50405 10.2644 9.68483 10.4403 9.89493 10.4403ZM7.09036 14.266H12.6946C13.7158 14.266 14.2288 13.7579 14.2288 12.7513V7.8751C14.2288 6.86859 13.7158 6.36044 12.6946 6.36044H11.3314V7.14709H12.68C13.1637 7.14709 13.4422 7.41093 13.4422 7.91908V12.7074C13.4422 13.2155 13.1637 13.4794 12.68 13.4794H7.10013C6.61153 13.4794 6.3428 13.2155 6.3428 12.7074V7.91908C6.3428 7.41093 6.61153 7.14709 7.10013 7.14709H8.45356V6.36044H7.09036C6.06918 6.36044 5.55615 6.86859 5.55615 7.8751V12.7513C5.55615 13.7579 6.06918 14.266 7.09036 14.266Z" fill="#737373"/>
</svg>
