<svg width="29" height="24" viewBox="0 0 29 24" fill="none" xmlns="http://www.w3.org/2000/svg">
<path d="M14.5059 13.8634C14.8072 13.8634 15.0594 13.6112 15.0594 13.3169V6.12073L15.0174 5.06968L15.4939 5.56718L16.5519 6.70231C16.65 6.81442 16.7972 6.87048 16.9303 6.87048C17.2246 6.87048 17.4418 6.66027 17.4418 6.37298C17.4418 6.22584 17.3858 6.11373 17.2807 6.00862L14.9123 3.72434C14.7722 3.58421 14.646 3.53516 14.5059 3.53516C14.3658 3.53516 14.2396 3.58421 14.0995 3.72434L11.7311 6.00862C11.626 6.11373 11.563 6.22584 11.563 6.37298C11.563 6.66027 11.7802 6.87048 12.0675 6.87048C12.2076 6.87048 12.3547 6.81442 12.4528 6.70231L13.5179 5.56718L13.9944 5.06968L13.9453 6.12073V13.3169C13.9453 13.6112 14.2046 13.8634 14.5059 13.8634ZM10.4839 19.3499H18.5209C19.9853 19.3499 20.7211 18.6212 20.7211 17.1777V10.1848C20.7211 8.74134 19.9853 8.01262 18.5209 8.01262H16.5659V9.14074H18.4999C19.1936 9.14074 19.593 9.51912 19.593 10.2478V17.1147C19.593 17.8434 19.1936 18.2218 18.4999 18.2218H10.4979C9.7972 18.2218 9.41182 17.8434 9.41182 17.1147V10.2478C9.41182 9.51912 9.7972 9.14074 10.4979 9.14074H12.4388V8.01262H10.4839C9.01942 8.01262 8.28369 8.74134 8.28369 10.1848V17.1777C8.28369 18.6212 9.01942 19.3499 10.4839 19.3499Z" fill="#737373"/>
</svg>
