<svg width="29" height="24" viewBox="0 0 29 24" fill="none" xmlns="http://www.w3.org/2000/svg">
<path d="M8.52588 18.4174H20.648C22.1194 18.4174 22.8481 17.6887 22.8481 16.2453V7.68974C22.8481 6.2463 22.1194 5.51758 20.648 5.51758H8.52588C7.06142 5.51758 6.32568 6.2393 6.32568 7.68974V16.2453C6.32568 17.6957 7.06142 18.4174 8.52588 18.4174ZM8.53989 17.2893C7.83919 17.2893 7.45381 16.9179 7.45381 16.1892V7.7458C7.45381 7.01707 7.83919 6.6457 8.53989 6.6457H11.665V17.2893H8.53989ZM20.6339 6.6457C21.3276 6.6457 21.72 7.01707 21.72 7.7458V16.1892C21.72 16.9179 21.3276 17.2893 20.6339 17.2893H12.7651V6.6457H20.6339ZM10.3127 9.24529C10.5299 9.24529 10.7121 9.0561 10.7121 8.8529C10.7121 8.64269 10.5299 8.46051 10.3127 8.46051H8.81316C8.60295 8.46051 8.41376 8.64269 8.41376 8.8529C8.41376 9.0561 8.60295 9.24529 8.81316 9.24529H10.3127ZM10.3127 11.0601C10.5299 11.0601 10.7121 10.8709 10.7121 10.6607C10.7121 10.4505 10.5299 10.2753 10.3127 10.2753H8.81316C8.60295 10.2753 8.41376 10.4505 8.41376 10.6607C8.41376 10.8709 8.60295 11.0601 8.81316 11.0601H10.3127ZM10.3127 12.8679C10.5299 12.8679 10.7121 12.6927 10.7121 12.4825C10.7121 12.2723 10.5299 12.0901 10.3127 12.0901H8.81316C8.60295 12.0901 8.41376 12.2723 8.41376 12.4825C8.41376 12.6927 8.60295 12.8679 8.81316 12.8679H10.3127Z" fill="#737373"/>
</svg>
