<svg width="20" height="18" viewBox="0 0 20 18" fill="none" xmlns="http://www.w3.org/2000/svg">
<path d="M9.76254 14.0925C12.4889 14.0925 14.7463 11.8302 14.7463 9.10873C14.7463 6.38234 12.484 4.125 9.75765 4.125C7.03614 4.125 4.77881 6.38234 4.77881 9.10873C4.77881 11.8302 7.04103 14.0925 9.76254 14.0925ZM9.76254 13.2618C7.45634 13.2618 5.61432 11.4149 5.61432 9.10873C5.61432 6.80253 7.45146 4.95562 9.75765 4.95562C12.0638 4.95562 13.9108 6.80253 13.9156 9.10873C13.9205 11.4149 12.0687 13.2618 9.76254 13.2618ZM9.76254 6.62175C9.55244 6.62175 9.39609 6.77322 9.39609 6.9882V9.43121L9.43517 10.4622L8.94657 9.87583L8.36514 9.28951C8.29673 9.22599 8.20879 9.18202 8.10618 9.18202C7.90585 9.18202 7.75439 9.33837 7.75439 9.53381C7.75439 9.63642 7.7837 9.72437 7.84722 9.78788L9.47915 11.4149C9.57687 11.5126 9.65993 11.5517 9.76254 11.5517C9.87003 11.5517 9.95798 11.5078 10.0508 11.4149L11.6779 9.78788C11.7414 9.72437 11.7805 9.63642 11.7805 9.53381C11.7805 9.33837 11.6241 9.18202 11.4238 9.18202C11.3163 9.18202 11.2283 9.22111 11.1648 9.28951L10.5883 9.87583L10.0899 10.467L10.129 9.43121V6.9882C10.129 6.77322 9.97752 6.62175 9.76254 6.62175Z" fill="#737373"/>
</svg>
