<svg width="29" height="24" viewBox="0 0 29 24" fill="none" xmlns="http://www.w3.org/2000/svg">
<path d="M9.51611 16.0663H10.7143V17.1383C10.7143 18.5818 11.443 19.3105 12.9145 19.3105H19.9495C21.407 19.3105 22.1427 18.5818 22.1427 17.1383V10.0473C22.1427 8.60382 21.407 7.87509 19.9495 7.87509H18.7443V6.80302C18.7443 5.35959 18.0086 4.63086 16.5511 4.63086H9.51611C8.04464 4.63086 7.31592 5.35959 7.31592 6.80302V13.8941C7.31592 15.3375 8.04464 16.0663 9.51611 16.0663ZM9.53012 14.9381C8.82943 14.9381 8.44404 14.5598 8.44404 13.831V6.86609C8.44404 6.13736 8.82943 5.75898 9.53012 5.75898H16.5301C17.2238 5.75898 17.6162 6.13736 17.6162 6.86609V7.87509H12.9145C11.443 7.87509 10.7143 8.59681 10.7143 10.0473V14.9381H9.53012ZM12.9285 18.1824C12.2348 18.1824 11.8424 17.804 11.8424 17.0753V10.1103C11.8424 9.38159 12.2348 9.00322 12.9285 9.00322H19.9285C20.6222 9.00322 21.0146 9.38159 21.0146 10.1103V17.0753C21.0146 17.804 20.6222 18.1824 19.9285 18.1824H12.9285Z" fill="#737373"/>
</svg>
