<svg width="31" height="8" viewBox="0 0 31 8" fill="none" xmlns="http://www.w3.org/2000/svg">
<g filter="url(#filter0_i_222_36353)">
<path fill-rule="evenodd" clip-rule="evenodd" d="M3.89207 7.63766C5.84259 7.63766 7.4238 6.05646 7.4238 4.10594C7.4238 2.15542 5.84259 0.574219 3.89207 0.574219C1.94156 0.574219 0.360352 2.15542 0.360352 4.10594C0.360352 6.05646 1.94156 7.63766 3.89207 7.63766Z" fill="#EE6A5F"/>
</g>
<path d="M7.27664 4.10594C7.27664 5.97518 5.76132 7.49051 3.89207 7.49051C2.02283 7.49051 0.507507 5.97518 0.507507 4.10594C0.507507 2.2367 2.02283 0.721374 3.89207 0.721374C5.76132 0.721374 7.27664 2.2367 7.27664 4.10594Z" stroke="#CE5347" stroke-width="0.29431"/>
<g filter="url(#filter1_i_222_36353)">
<path fill-rule="evenodd" clip-rule="evenodd" d="M15.6645 7.63766C17.6151 7.63766 19.1963 6.05646 19.1963 4.10594C19.1963 2.15542 17.6151 0.574219 15.6645 0.574219C13.714 0.574219 12.1328 2.15542 12.1328 4.10594C12.1328 6.05646 13.714 7.63766 15.6645 7.63766Z" fill="#F5BD4F"/>
</g>
<path d="M19.0491 4.10594C19.0491 5.97518 17.5338 7.49051 15.6645 7.49051C13.7953 7.49051 12.28 5.97518 12.28 4.10594C12.28 2.2367 13.7953 0.721374 15.6645 0.721374C17.5338 0.721374 19.0491 2.2367 19.0491 4.10594Z" stroke="#D6A243" stroke-width="0.29431"/>
<g filter="url(#filter2_i_222_36353)">
<path fill-rule="evenodd" clip-rule="evenodd" d="M27.437 7.63766C29.3875 7.63766 30.9687 6.05646 30.9687 4.10594C30.9687 2.15542 29.3875 0.574219 27.437 0.574219C25.4865 0.574219 23.9053 2.15542 23.9053 4.10594C23.9053 6.05646 25.4865 7.63766 27.437 7.63766Z" fill="#61C454"/>
</g>
<path d="M30.8216 4.10594C30.8216 5.97518 29.3062 7.49051 27.437 7.49051C25.5678 7.49051 24.0524 5.97518 24.0524 4.10594C24.0524 2.2367 25.5678 0.721374 27.437 0.721374C29.3062 0.721374 30.8216 2.2367 30.8216 4.10594Z" stroke="#58A942" stroke-width="0.29431"/>
<defs>
<filter id="filter0_i_222_36353" x="0.360352" y="0.574219" width="7.06348" height="7.0625" filterUnits="userSpaceOnUse" color-interpolation-filters="sRGB">
<feFlood flood-opacity="0" result="BackgroundImageFix"/>
<feBlend mode="normal" in="SourceGraphic" in2="BackgroundImageFix" result="shape"/>
<feColorMatrix in="SourceAlpha" type="matrix" values="0 0 0 0 0 0 0 0 0 0 0 0 0 0 0 0 0 0 127 0" result="hardAlpha"/>
<feOffset/>
<feGaussianBlur stdDeviation="1.76586"/>
<feComposite in2="hardAlpha" operator="arithmetic" k2="-1" k3="1"/>
<feColorMatrix type="matrix" values="0 0 0 0 0.92549 0 0 0 0 0.427451 0 0 0 0 0.384314 0 0 0 1 0"/>
<feBlend mode="normal" in2="shape" result="effect1_innerShadow_222_36353"/>
</filter>
<filter id="filter1_i_222_36353" x="12.1328" y="0.574219" width="7.06348" height="7.0625" filterUnits="userSpaceOnUse" color-interpolation-filters="sRGB">
<feFlood flood-opacity="0" result="BackgroundImageFix"/>
<feBlend mode="normal" in="SourceGraphic" in2="BackgroundImageFix" result="shape"/>
<feColorMatrix in="SourceAlpha" type="matrix" values="0 0 0 0 0 0 0 0 0 0 0 0 0 0 0 0 0 0 127 0" result="hardAlpha"/>
<feOffset/>
<feGaussianBlur stdDeviation="1.76586"/>
<feComposite in2="hardAlpha" operator="arithmetic" k2="-1" k3="1"/>
<feColorMatrix type="matrix" values="0 0 0 0 0.960784 0 0 0 0 0.768627 0 0 0 0 0.317647 0 0 0 1 0"/>
<feBlend mode="normal" in2="shape" result="effect1_innerShadow_222_36353"/>
</filter>
<filter id="filter2_i_222_36353" x="23.9053" y="0.574219" width="7.06348" height="7.0625" filterUnits="userSpaceOnUse" color-interpolation-filters="sRGB">
<feFlood flood-opacity="0" result="BackgroundImageFix"/>
<feBlend mode="normal" in="SourceGraphic" in2="BackgroundImageFix" result="shape"/>
<feColorMatrix in="SourceAlpha" type="matrix" values="0 0 0 0 0 0 0 0 0 0 0 0 0 0 0 0 0 0 127 0" result="hardAlpha"/>
<feOffset/>
<feGaussianBlur stdDeviation="1.76586"/>
<feComposite in2="hardAlpha" operator="arithmetic" k2="-1" k3="1"/>
<feColorMatrix type="matrix" values="0 0 0 0 0.407843 0 0 0 0 0.8 0 0 0 0 0.345098 0 0 0 1 0"/>
<feBlend mode="normal" in2="shape" result="effect1_innerShadow_222_36353"/>
</filter>
</defs>
</svg>
