<svg width="28" height="24" viewBox="0 0 28 24" fill="none" xmlns="http://www.w3.org/2000/svg">
<path d="M16.3784 17.8491L10.8219 12.4257C10.6887 12.2926 10.6187 12.1314 10.6187 11.9563C10.6187 11.7741 10.6957 11.5989 10.8289 11.4868L16.3784 6.05638C16.4975 5.93726 16.6517 5.86719 16.8338 5.86719C17.1982 5.86719 17.4715 6.14747 17.4715 6.51183C17.4715 6.68 17.4014 6.84816 17.2893 6.96728L12.1882 11.9563L17.2893 16.9452C17.4014 17.0643 17.4715 17.2255 17.4715 17.4007C17.4715 17.765 17.1982 18.0383 16.8338 18.0383C16.6517 18.0383 16.4975 17.9682 16.3784 17.8491Z" fill="#737373"/>
</svg>
