<svg width="29" height="24" viewBox="0 0 29 24" fill="none" xmlns="http://www.w3.org/2000/svg">
<path d="M14.8986 19.1028C18.8085 19.1028 22.0457 15.8586 22.0457 11.9557C22.0457 8.04582 18.8015 4.80859 14.8916 4.80859C10.9887 4.80859 7.75146 8.04582 7.75146 11.9557C7.75146 15.8586 10.9957 19.1028 14.8986 19.1028ZM14.8986 17.9116C11.5913 17.9116 8.94966 15.263 8.94966 11.9557C8.94966 8.64842 11.5843 5.99978 14.8916 5.99978C18.1989 5.99978 20.8475 8.64842 20.8545 11.9557C20.8615 15.263 18.2059 17.9116 14.8986 17.9116ZM14.8986 8.38916C14.5973 8.38916 14.3731 8.60638 14.3731 8.91468V12.4182L14.4291 13.8966L13.7284 13.0558L12.8946 12.215C12.7965 12.1239 12.6704 12.0608 12.5232 12.0608C12.2359 12.0608 12.0187 12.285 12.0187 12.5653C12.0187 12.7125 12.0608 12.8386 12.1518 12.9297L14.4922 15.263C14.6323 15.4031 14.7514 15.4592 14.8986 15.4592C15.0527 15.4592 15.1789 15.3961 15.312 15.263L17.6453 12.9297C17.7364 12.8386 17.7925 12.7125 17.7925 12.5653C17.7925 12.285 17.5682 12.0608 17.281 12.0608C17.1268 12.0608 17.0007 12.1169 16.9096 12.215L16.0828 13.0558L15.3681 13.9037L15.4241 12.4182V8.91468C15.4241 8.60638 15.2069 8.38916 14.8986 8.38916Z" fill="#737373"/>
</svg>
