<svg width="29" height="24" viewBox="0 0 29 24" fill="none" xmlns="http://www.w3.org/2000/svg">
<path d="M12.1103 18.0453C12.2925 18.0453 12.4466 17.9752 12.5657 17.8561L18.1223 12.4257C18.2554 12.2926 18.3255 12.1314 18.3255 11.9563C18.3255 11.7741 18.2554 11.6059 18.1223 11.4868L12.5728 6.06338C12.4466 5.93726 12.2925 5.86719 12.1103 5.86719C11.7459 5.86719 11.4727 6.14747 11.4727 6.51183C11.4727 6.68 11.5427 6.84816 11.6548 6.96728L16.7559 11.9563L11.6548 16.9452C11.5427 17.0643 11.4727 17.2255 11.4727 17.4007C11.4727 17.765 11.7459 18.0453 12.1103 18.0453Z" fill="#BFBFBF"/>
</svg>
