<svg width="21" height="18" viewBox="0 0 21 18" fill="none" xmlns="http://www.w3.org/2000/svg">
<path d="M12.2145 13.2184L8.33994 9.43658C8.2471 9.34375 8.19824 9.23137 8.19824 9.10922C8.19824 8.98219 8.25199 8.86004 8.34482 8.78186L12.2145 4.9952C12.2976 4.91214 12.4051 4.86328 12.5321 4.86328C12.7862 4.86328 12.9768 5.05872 12.9768 5.31279C12.9768 5.43006 12.9279 5.54732 12.8497 5.63038L9.29271 9.10922L12.8497 12.5881C12.9279 12.6711 12.9768 12.7835 12.9768 12.9057C12.9768 13.1597 12.7862 13.3503 12.5321 13.3503C12.4051 13.3503 12.2976 13.3014 12.2145 13.2184Z" fill="#737373"/>
</svg>
