<svg width="20" height="18" viewBox="0 0 20 18" fill="none" xmlns="http://www.w3.org/2000/svg">
<path d="M5.63821 13.6162H14.091C15.1171 13.6162 15.6252 13.1081 15.6252 12.1016V6.13576C15.6252 5.12924 15.1171 4.62109 14.091 4.62109H5.63821C4.61703 4.62109 4.104 5.12435 4.104 6.13576V12.1016C4.104 13.113 4.61703 13.6162 5.63821 13.6162ZM5.64798 12.8296C5.15938 12.8296 4.89065 12.5706 4.89065 12.0625V6.17484C4.89065 5.6667 5.15938 5.40774 5.64798 5.40774H7.82714V12.8296H5.64798ZM14.0812 5.40774C14.5649 5.40774 14.8386 5.6667 14.8386 6.17484V12.0625C14.8386 12.5706 14.5649 12.8296 14.0812 12.8296H8.59425V5.40774H14.0812ZM6.88414 7.22045C7.03561 7.22045 7.16265 7.08853 7.16265 6.94683C7.16265 6.80025 7.03561 6.67322 6.88414 6.67322H5.83854C5.69196 6.67322 5.56003 6.80025 5.56003 6.94683C5.56003 7.08853 5.69196 7.22045 5.83854 7.22045H6.88414ZM6.88414 8.48593C7.03561 8.48593 7.16265 8.354 7.16265 8.20742C7.16265 8.06084 7.03561 7.93869 6.88414 7.93869H5.83854C5.69196 7.93869 5.56003 8.06084 5.56003 8.20742C5.56003 8.354 5.69196 8.48593 5.83854 8.48593H6.88414ZM6.88414 9.74652C7.03561 9.74652 7.16265 9.62437 7.16265 9.47779C7.16265 9.33121 7.03561 9.20417 6.88414 9.20417H5.83854C5.69196 9.20417 5.56003 9.33121 5.56003 9.47779C5.56003 9.62437 5.69196 9.74652 5.83854 9.74652H6.88414Z" fill="#737373"/>
</svg>
