<svg width="21" height="18" viewBox="0 0 21 18" fill="none" xmlns="http://www.w3.org/2000/svg">
<path d="M10.4445 14.1783C10.5227 14.1783 10.6498 14.149 10.7719 14.0806C13.5521 12.522 14.5048 11.8624 14.5048 10.079V6.34117C14.5048 5.82814 14.285 5.6669 13.8696 5.49101C13.2931 5.25159 11.4315 4.58221 10.855 4.38188C10.7231 4.33791 10.5814 4.30859 10.4445 4.30859C10.3077 4.30859 10.166 4.34768 10.039 4.38188C9.46246 4.54801 7.59601 5.25648 7.01946 5.49101C6.60903 5.66202 6.38428 5.82814 6.38428 6.34117V10.079C6.38428 11.8624 7.34193 12.5171 10.1172 14.0806C10.2442 14.149 10.3664 14.1783 10.4445 14.1783ZM10.64 5.13922C11.3778 5.43238 12.8094 5.95029 13.5667 6.20925C13.6986 6.25811 13.7279 6.32652 13.7279 6.49264V9.89819C13.7279 11.408 13.0048 11.8037 10.7475 13.1767C10.6058 13.2646 10.5276 13.2891 10.4494 13.294V5.09524C10.4983 5.09524 10.5618 5.1099 10.64 5.13922Z" fill="#737373"/>
</svg>
