<svg width="20" height="18" viewBox="0 0 20 18" fill="none" xmlns="http://www.w3.org/2000/svg">
<path d="M6.52786 11.9779H7.36337V12.7254C7.36337 13.7319 7.87151 14.2401 8.89757 14.2401H13.8031C14.8194 14.2401 15.3324 13.7319 15.3324 12.7254V7.78079C15.3324 6.77427 14.8194 6.26613 13.8031 6.26613H12.9627V5.51857C12.9627 4.51205 12.4497 4.00391 11.4334 4.00391H6.52786C5.5018 4.00391 4.99365 4.51205 4.99365 5.51857V10.4632C4.99365 11.4697 5.5018 11.9779 6.52786 11.9779ZM6.53763 11.1912C6.04903 11.1912 5.7803 10.9274 5.7803 10.4192V5.56254C5.7803 5.0544 6.04903 4.79055 6.53763 4.79055H11.4188C11.9025 4.79055 12.1761 5.0544 12.1761 5.56254V6.26613H8.89757C7.87151 6.26613 7.36337 6.76939 7.36337 7.78079V11.1912H6.53763ZM8.90735 13.4534C8.42363 13.4534 8.15001 13.1896 8.15001 12.6815V7.82476C8.15001 7.31662 8.42363 7.05278 8.90735 7.05278H13.7885C14.2722 7.05278 14.5458 7.31662 14.5458 7.82476V12.6815C14.5458 13.1896 14.2722 13.4534 13.7885 13.4534H8.90735Z" fill="#737373"/>
</svg>
