<svg width="29" height="24" viewBox="0 0 29 24" fill="none" xmlns="http://www.w3.org/2000/svg">
<path d="M14.605 19.2244C14.7171 19.2244 14.8993 19.1824 15.0745 19.0843C19.0615 16.849 20.4278 15.9031 20.4278 13.3456V7.98522C20.4278 7.24948 20.1125 7.01825 19.5169 6.766C18.6901 6.42266 16.0204 5.4627 15.1936 5.17542C15.0044 5.11235 14.8012 5.07031 14.605 5.07031C14.4088 5.07031 14.2056 5.12637 14.0234 5.17542C13.1966 5.41365 10.52 6.42967 9.69313 6.766C9.10455 7.01125 8.78223 7.24948 8.78223 7.98522V13.3456C8.78223 15.9031 10.1556 16.842 14.1356 19.0843C14.3177 19.1824 14.4929 19.2244 14.605 19.2244ZM14.8853 6.2615C15.9434 6.68192 17.9964 7.42466 19.0825 7.79603C19.2717 7.8661 19.3137 7.9642 19.3137 8.20243V13.0863C19.3137 15.2515 18.2767 15.819 15.0395 17.788C14.8363 17.9141 14.7241 17.9491 14.612 17.9561V6.19844C14.6821 6.19844 14.7732 6.21946 14.8853 6.2615Z" fill="#737373"/>
</svg>
