<svg width="29" height="24" viewBox="0 0 29 24" fill="none" xmlns="http://www.w3.org/2000/svg">
<path d="M14.1172 17.8642C14.4605 17.8642 14.7478 17.5909 14.7478 17.2546V12.595H19.2743C19.6107 12.595 19.8979 12.3077 19.8979 11.9643C19.8979 11.621 19.6107 11.3407 19.2743 11.3407H14.7478V6.67406C14.7478 6.33773 14.4605 6.06445 14.1172 6.06445C13.7738 6.06445 13.4936 6.33773 13.4936 6.67406V11.3407H8.96005C8.62371 11.3407 8.33643 11.621 8.33643 11.9643C8.33643 12.3077 8.62371 12.595 8.96005 12.595H13.4936V17.2546C13.4936 17.5909 13.7738 17.8642 14.1172 17.8642Z" fill="#737373"/>
</svg>
