<svg width="20" height="18" viewBox="0 0 20 18" fill="none" xmlns="http://www.w3.org/2000/svg">
<path d="M8.06523 13.3552C8.19227 13.3552 8.29976 13.3063 8.38282 13.2232L12.2574 9.43658C12.3503 9.34375 12.3991 9.23137 12.3991 9.10922C12.3991 8.98219 12.3503 8.86492 12.2574 8.78186L8.38771 5.00009C8.29976 4.91214 8.19227 4.86328 8.06523 4.86328C7.81116 4.86328 7.62061 5.05872 7.62061 5.31279C7.62061 5.43006 7.66947 5.54732 7.74764 5.63038L11.3047 9.10922L7.74764 12.5881C7.66947 12.6711 7.62061 12.7835 7.62061 12.9057C7.62061 13.1597 7.81116 13.3552 8.06523 13.3552Z" fill="#BFBFBF"/>
</svg>
