<svg width="40" height="41" viewBox="0 0 40 41" fill="none" xmlns="http://www.w3.org/2000/svg">
<circle cx="20" cy="20.8008" r="20" fill="#F2F2F2"/>
<path d="M24.4498 15.3521C24.2521 15.3521 24.0587 15.4107 23.8943 15.5206C23.7298 15.6305 23.6016 15.7867 23.526 15.9694C23.4503 16.1521 23.4305 16.3532 23.4691 16.5472C23.5076 16.7412 23.6029 16.9193 23.7427 17.0592C23.8826 17.199 24.0608 17.2943 24.2547 17.3329C24.4487 17.3715 24.6498 17.3517 24.8325 17.276C25.0152 17.2003 25.1714 17.0721 25.2813 16.9077C25.3912 16.7432 25.4498 16.5499 25.4498 16.3521C25.4498 16.0869 25.3445 15.8325 25.1569 15.645C24.9694 15.4574 24.7151 15.3521 24.4498 15.3521ZM28.2832 17.3688C28.267 16.6773 28.1375 15.9933 27.8998 15.3438C27.6879 14.788 27.3582 14.2848 26.9332 13.8688C26.5205 13.4416 26.0161 13.1139 25.4582 12.9104C24.8104 12.6656 24.1255 12.5331 23.4332 12.5187C22.5498 12.4687 22.2665 12.4688 19.9998 12.4688C17.7332 12.4688 17.4498 12.4687 16.5665 12.5187C15.8741 12.5331 15.1893 12.6656 14.5415 12.9104C13.9846 13.116 13.4806 13.4434 13.0665 13.8688C12.6394 14.2814 12.3117 14.7858 12.1082 15.3438C11.8633 15.9915 11.7308 16.6764 11.7165 17.3688C11.6665 18.2521 11.6665 18.5354 11.6665 20.8021C11.6665 23.0688 11.6665 23.3521 11.7165 24.2354C11.7308 24.9278 11.8633 25.6126 12.1082 26.2604C12.3117 26.8184 12.6394 27.3228 13.0665 27.7354C13.4806 28.1608 13.9846 28.4882 14.5415 28.6938C15.1893 28.9386 15.8741 29.0711 16.5665 29.0854C17.4498 29.1354 17.7332 29.1354 19.9998 29.1354C22.2665 29.1354 22.5498 29.1354 23.4332 29.0854C24.1255 29.0711 24.8104 28.9386 25.4582 28.6938C26.0161 28.4903 26.5205 28.1626 26.9332 27.7354C27.36 27.3209 27.6901 26.8172 27.8998 26.2604C28.1375 25.6109 28.267 24.9268 28.2832 24.2354C28.2832 23.3521 28.3332 23.0688 28.3332 20.8021C28.3332 18.5354 28.3332 18.2521 28.2832 17.3688ZM26.7832 24.1354C26.7771 24.6644 26.6813 25.1885 26.4998 25.6854C26.3668 26.0481 26.1531 26.3758 25.8748 26.6438C25.6045 26.9192 25.2775 27.1324 24.9165 27.2688C24.4196 27.4502 23.8955 27.546 23.3665 27.5521C22.5332 27.5938 22.2248 27.6021 20.0332 27.6021C17.8415 27.6021 17.5332 27.6021 16.6998 27.5521C16.1506 27.5624 15.6037 27.4778 15.0832 27.3021C14.738 27.1588 14.426 26.9461 14.1665 26.6771C13.8899 26.4094 13.6789 26.0814 13.5498 25.7188C13.3464 25.2147 13.2335 24.6787 13.2165 24.1354C13.2165 23.3021 13.1665 22.9938 13.1665 20.8021C13.1665 18.6104 13.1665 18.3021 13.2165 17.4688C13.2202 16.928 13.319 16.392 13.5082 15.8854C13.6549 15.5337 13.8801 15.2201 14.1665 14.9688C14.4197 14.6822 14.7326 14.4547 15.0832 14.3021C15.5911 14.1188 16.1265 14.023 16.6665 14.0187C17.4998 14.0187 17.8082 13.9688 19.9998 13.9688C22.1915 13.9688 22.4998 13.9688 23.3332 14.0187C23.8621 14.0248 24.3863 14.1206 24.8832 14.3021C25.2619 14.4426 25.6017 14.6711 25.8748 14.9688C26.1479 15.2247 26.3613 15.5377 26.4998 15.8854C26.685 16.3929 26.7809 16.9286 26.7832 17.4688C26.8248 18.3021 26.8332 18.6104 26.8332 20.8021C26.8332 22.9938 26.8248 23.3021 26.7832 24.1354ZM19.9998 16.5271C19.1547 16.5287 18.329 16.7809 17.627 17.2516C16.9251 17.7223 16.3785 18.3906 16.0562 19.1719C15.7339 19.9532 15.6504 20.8125 15.8163 21.6412C15.9822 22.4699 16.39 23.2309 16.9882 23.8279C17.5864 24.4249 18.3482 24.8313 19.1772 24.9955C20.0063 25.1598 20.8654 25.0747 21.6461 24.7509C22.4267 24.4271 23.0939 23.8791 23.5633 23.1763C24.0327 22.4734 24.2832 21.6472 24.2832 20.8021C24.2843 20.2397 24.1742 19.6826 23.9592 19.1629C23.7442 18.6432 23.4286 18.1711 23.0306 17.7738C22.6325 17.3765 22.1598 17.0618 21.6397 16.8479C21.1195 16.6339 20.5622 16.5249 19.9998 16.5271ZM19.9998 23.5771C19.451 23.5771 18.9145 23.4143 18.4581 23.1094C18.0018 22.8045 17.6461 22.3711 17.4361 21.864C17.226 21.357 17.1711 20.799 17.2782 20.2607C17.3852 19.7224 17.6495 19.228 18.0376 18.8399C18.4257 18.4518 18.9202 18.1875 19.4585 18.0804C19.9968 17.9733 20.5547 18.0283 21.0618 18.2383C21.5688 18.4484 22.0022 18.804 22.3072 19.2604C22.6121 19.7167 22.7748 20.2532 22.7748 20.8021C22.7748 21.1665 22.7031 21.5274 22.5636 21.864C22.4241 22.2007 22.2197 22.5066 21.9621 22.7643C21.7044 23.022 21.3985 23.2264 21.0618 23.3658C20.7251 23.5053 20.3643 23.5771 19.9998 23.5771Z" fill="black"/>
</svg>
