<svg width="40" height="41" viewBox="0 0 40 41" fill="none" xmlns="http://www.w3.org/2000/svg">
<circle cx="20" cy="20.8008" r="20" fill="#F2F2F2"/>
<path d="M28.3332 15.6333C27.7068 15.9051 27.0444 16.0847 26.3665 16.1666C27.0816 15.7394 27.6176 15.0673 27.8748 14.275C27.2028 14.675 26.4671 14.9569 25.6998 15.1083C25.187 14.5521 24.504 14.1819 23.758 14.0557C23.012 13.9295 22.2453 14.0544 21.578 14.411C20.9107 14.7675 20.3806 15.3354 20.0709 16.0257C19.7611 16.7159 19.6892 17.4895 19.8665 18.225C18.5077 18.1563 17.1785 17.8024 15.9654 17.1865C14.7522 16.5706 13.6822 15.7064 12.8248 14.65C12.5241 15.1751 12.3661 15.7698 12.3665 16.375C12.3654 16.937 12.5034 17.4905 12.768 17.9863C13.0326 18.4821 13.4157 18.9047 13.8832 19.2166C13.3398 19.2019 12.8081 19.0561 12.3332 18.7916V18.8333C12.3372 19.6207 12.6132 20.3826 13.1143 20.99C13.6154 21.5973 14.3109 22.013 15.0832 22.1666C14.7859 22.2571 14.4772 22.3048 14.1665 22.3083C13.9514 22.3058 13.7369 22.2863 13.5248 22.25C13.7448 22.9273 14.1704 23.5193 14.7424 23.9434C15.3144 24.3676 16.0045 24.6029 16.7165 24.6166C15.5142 25.5627 14.0297 26.079 12.4998 26.0833C12.2213 26.0842 11.943 26.0675 11.6665 26.0333C13.2285 27.0419 15.0488 27.5772 16.9082 27.575C18.1912 27.5883 19.4641 27.3458 20.6524 26.8617C21.8408 26.3776 22.9207 25.6616 23.8292 24.7554C24.7377 23.8492 25.4565 22.7711 25.9436 21.5841C26.4308 20.397 26.6765 19.1248 26.6665 17.8416C26.6665 17.7 26.6665 17.55 26.6665 17.4C27.3204 16.9123 27.8844 16.3145 28.3332 15.6333Z" fill="black"/>
</svg>
