<svg width="40" height="41" viewBox="0 0 40 41" fill="none" xmlns="http://www.w3.org/2000/svg">
<circle cx="20" cy="20.8008" r="20" fill="#F2F2F2"/>
<path d="M27.0585 12.4689H12.9418C12.7831 12.4667 12.6255 12.4957 12.4781 12.5544C12.3307 12.6131 12.1962 12.7003 12.0825 12.811C11.9687 12.9216 11.8779 13.0536 11.8151 13.1994C11.7524 13.3451 11.719 13.5018 11.7168 13.6605V27.9439C11.719 28.1026 11.7524 28.2593 11.8151 28.405C11.8779 28.5508 11.9687 28.6828 12.0825 28.7934C12.1962 28.9041 12.3307 28.9913 12.4781 29.05C12.6255 29.1087 12.7831 29.1377 12.9418 29.1355H27.0585C27.2171 29.1377 27.3747 29.1087 27.5222 29.05C27.6696 28.9913 27.804 28.9041 27.9178 28.7934C28.0316 28.6828 28.1224 28.5508 28.1851 28.405C28.2479 28.2593 28.2813 28.1026 28.2835 27.9439V13.6605C28.2813 13.5018 28.2479 13.3451 28.1851 13.1994C28.1224 13.0536 28.0316 12.9216 27.9178 12.811C27.804 12.7003 27.6696 12.6131 27.5222 12.5544C27.3747 12.4957 27.2171 12.4667 27.0585 12.4689ZM16.7418 26.4189H14.2418V18.9189H16.7418V26.4189ZM15.4918 17.8689C15.147 17.8689 14.8164 17.7319 14.5726 17.4881C14.3288 17.2443 14.1918 16.9136 14.1918 16.5689C14.1918 16.2241 14.3288 15.8934 14.5726 15.6496C14.8164 15.4058 15.147 15.2689 15.4918 15.2689C15.6749 15.2481 15.8603 15.2662 16.0359 15.3221C16.2114 15.378 16.3732 15.4703 16.5107 15.593C16.6481 15.7157 16.7581 15.8661 16.8334 16.0343C16.9086 16.2024 16.9476 16.3846 16.9476 16.5689C16.9476 16.7531 16.9086 16.9353 16.8334 17.1035C16.7581 17.2716 16.6481 17.422 16.5107 17.5447C16.3732 17.6675 16.2114 17.7598 16.0359 17.8156C15.8603 17.8715 15.6749 17.8896 15.4918 17.8689ZM25.7585 26.4189H23.2585V22.3939C23.2585 21.3855 22.9001 20.7272 21.9918 20.7272C21.7107 20.7293 21.437 20.8174 21.2075 20.9798C20.978 21.1423 20.8039 21.3711 20.7085 21.6355C20.6433 21.8314 20.615 22.0377 20.6251 22.2439V26.4105H18.1251C18.1251 26.4105 18.1251 19.5939 18.1251 18.9105H20.6251V19.9689C20.8522 19.5748 21.1826 19.2501 21.5805 19.0299C21.9784 18.8096 22.4289 18.7021 22.8835 18.7189C24.5501 18.7189 25.7585 19.7939 25.7585 22.1022V26.4189Z" fill="black"/>
</svg>
