<svg width="16" height="17" viewBox="0 0 16 17" fill="none" xmlns="http://www.w3.org/2000/svg">
<path d="M2.63037 3.40039H13.3698C13.4667 3.40039 13.5615 3.42853 13.6426 3.48138C13.7238 3.53423 13.7879 3.60953 13.8271 3.69811C13.8663 3.7867 13.8789 3.88476 13.8634 3.98038C13.8479 4.07599 13.8049 4.16505 13.7398 4.23673L9.63013 8.75736C9.54646 8.84939 9.5001 8.96931 9.5001 9.09369V12.6328C9.5001 12.7151 9.47977 12.7962 9.44093 12.8687C9.40209 12.9413 9.34594 13.0032 9.27745 13.0488L7.27745 14.3822C7.20215 14.4324 7.11463 14.4612 7.02424 14.4655C6.93384 14.4699 6.84396 14.4497 6.76417 14.407C6.68438 14.3643 6.61767 14.3007 6.57116 14.2231C6.52466 14.1454 6.5001 14.0566 6.5001 13.9661V9.09369C6.5001 8.96931 6.45373 8.84939 6.37007 8.75736L2.2604 4.23673C2.19524 4.16505 2.15231 4.07599 2.13681 3.98038C2.12131 3.88476 2.13393 3.7867 2.17311 3.69811C2.2123 3.60953 2.27638 3.53423 2.35755 3.48138C2.43873 3.42853 2.53351 3.40039 2.63037 3.40039V3.40039Z" stroke="#E8E8E8" stroke-width="1.5" stroke-linecap="round" stroke-linejoin="round"/>
</svg>
