<svg width="15" height="15" viewBox="0 0 15 15" fill="none" xmlns="http://www.w3.org/2000/svg">
<path fill-rule="evenodd" clip-rule="evenodd" d="M11.6488 2.85971C11.8758 3.08672 11.8758 3.45477 11.6488 3.68178L3.80141 11.5292C3.5744 11.7562 3.20635 11.7562 2.97934 11.5292C2.75233 11.3022 2.75233 10.9341 2.97934 10.7071L10.8268 2.85971C11.0538 2.6327 11.4218 2.6327 11.6488 2.85971Z" fill="#929AB5"/>
<path fill-rule="evenodd" clip-rule="evenodd" d="M2.97934 2.85971C3.20635 2.6327 3.5744 2.6327 3.80141 2.85971L11.6488 10.7071C11.8758 10.9341 11.8758 11.3022 11.6488 11.5292C11.4218 11.7562 11.0538 11.7562 10.8268 11.5292L2.97934 3.68178C2.75233 3.45477 2.75233 3.08672 2.97934 2.85971Z" fill="#929AB5"/>
</svg>
