<svg width="10" height="10" viewBox="0 0 10 10" fill="none" xmlns="http://www.w3.org/2000/svg">
<path d="M5.45814 8.79323C7.32325 8.79323 8.83523 7.28126 8.83523 5.41615C8.83523 3.55104 7.32325 2.03906 5.45814 2.03906C3.59303 2.03906 2.08105 3.55104 2.08105 5.41615C2.08105 7.28126 3.59303 8.79323 5.45814 8.79323Z" stroke="#727272" stroke-width="0.675417" stroke-linecap="round" stroke-linejoin="round"/>
<path d="M4.19216 5.13529C4.42529 5.13529 4.61429 4.94629 4.61429 4.71315C4.61429 4.48001 4.42529 4.29102 4.19216 4.29102C3.95902 4.29102 3.77002 4.48001 3.77002 4.71315C3.77002 4.94629 3.95902 5.13529 4.19216 5.13529Z" fill="#727272"/>
<path d="M6.72487 5.13529C6.95801 5.13529 7.14701 4.94629 7.14701 4.71315C7.14701 4.48001 6.95801 4.29102 6.72487 4.29102C6.49173 4.29102 6.30273 4.48001 6.30273 4.71315C6.30273 4.94629 6.49173 5.13529 6.72487 5.13529Z" fill="#727272"/>
<path d="M6.92099 6.26172C6.77273 6.51844 6.55951 6.73162 6.30276 6.87984C6.04601 7.02805 5.75477 7.10608 5.45831 7.10608C5.16184 7.10609 4.8706 7.02806 4.61385 6.87985C4.3571 6.73164 4.14387 6.51846 3.99561 6.26174" stroke="#727272" stroke-width="0.675417" stroke-linecap="round" stroke-linejoin="round"/>
</svg>
