<svg width="9" height="9" viewBox="0 0 9 9" fill="none" xmlns="http://www.w3.org/2000/svg">
<path d="M7.52487 2.70117H1.63024C1.48226 2.70117 1.3623 2.82113 1.3623 2.96911V7.25611C1.3623 7.40409 1.48226 7.52405 1.63024 7.52405H7.52487C7.67285 7.52405 7.79281 7.40409 7.79281 7.25611V2.96911C7.79281 2.82113 7.67285 2.70117 7.52487 2.70117Z" stroke="white" stroke-width="0.571601" stroke-linecap="round" stroke-linejoin="round"/>
<path d="M5.91668 2.70066V2.16478C5.91668 2.02266 5.86022 1.88636 5.75973 1.78586C5.65923 1.68536 5.52293 1.62891 5.38081 1.62891H3.77318C3.63106 1.62891 3.49476 1.68536 3.39426 1.78586C3.29376 1.88636 3.2373 2.02266 3.2373 2.16478V2.70066" stroke="white" stroke-width="0.571601" stroke-linecap="round" stroke-linejoin="round"/>
<path d="M7.79286 4.51953C6.81566 5.0849 5.70631 5.38175 4.57734 5.37998C3.44856 5.38175 2.33939 5.085 1.3623 4.51981" stroke="white" stroke-width="0.571601" stroke-linecap="round" stroke-linejoin="round"/>
<path d="M4.17529 4.30859H4.97911" stroke="white" stroke-width="0.571601" stroke-linecap="round" stroke-linejoin="round"/>
</svg>
