<svg width="16" height="17" viewBox="0 0 16 17" fill="none" xmlns="http://www.w3.org/2000/svg">
<path d="M2.63037 3.80078H13.3698C13.4667 3.80078 13.5615 3.82892 13.6426 3.88177C13.7238 3.93463 13.7879 4.00992 13.8271 4.0985C13.8663 4.18709 13.8789 4.28515 13.8634 4.38077C13.8479 4.47638 13.8049 4.56544 13.7398 4.63712L9.63013 9.15775C9.54646 9.24978 9.5001 9.3697 9.5001 9.49408V13.0332C9.5001 13.1155 9.47977 13.1965 9.44093 13.2691C9.40209 13.3417 9.34594 13.4036 9.27745 13.4492L7.27745 14.7825C7.20215 14.8327 7.11463 14.8616 7.02424 14.8659C6.93384 14.8703 6.84396 14.8501 6.76417 14.8074C6.68438 14.7647 6.61767 14.7011 6.57116 14.6235C6.52466 14.5458 6.5001 14.457 6.5001 14.3665V9.49409C6.5001 9.3697 6.45373 9.24979 6.37007 9.15775L2.2604 4.63712C2.19524 4.56544 2.15231 4.47638 2.13681 4.38077C2.12131 4.28515 2.13393 4.18709 2.17311 4.0985C2.2123 4.00992 2.27638 3.93463 2.35755 3.88177C2.43873 3.82892 2.53351 3.80078 2.63037 3.80078V3.80078Z" stroke="black" stroke-width="1.5" stroke-linecap="round" stroke-linejoin="round"/>
</svg>
