<svg width="11" height="12" viewBox="0 0 11 12" fill="none" xmlns="http://www.w3.org/2000/svg">
<path d="M5.55225 4.18359V6.54755" stroke="black" stroke-width="0.675417" stroke-linecap="round" stroke-linejoin="round"/>
<path d="M7.09122 2.1582H4.01378C3.96944 2.1582 3.92552 2.16694 3.88455 2.18391C3.84358 2.20088 3.80635 2.22576 3.77499 2.25712L1.59891 4.43319C1.56755 4.46455 1.54268 4.50178 1.52571 4.54275C1.50874 4.58373 1.5 4.62764 1.5 4.67199V7.74942C1.5 7.79377 1.50874 7.83769 1.52571 7.87866C1.54268 7.91963 1.56755 7.95686 1.59891 7.98822L3.77499 10.1643C3.80635 10.1957 3.84358 10.2205 3.88455 10.2375C3.92552 10.2545 3.96944 10.2632 4.01378 10.2632H7.09122C7.13557 10.2632 7.17948 10.2545 7.22046 10.2375C7.26143 10.2205 7.29866 10.1957 7.33002 10.1643L9.50609 7.98822C9.53745 7.95686 9.56233 7.91963 9.5793 7.87866C9.59627 7.83769 9.60501 7.79377 9.60501 7.74942V4.67199C9.60501 4.62764 9.59627 4.58373 9.5793 4.54275C9.56233 4.50178 9.53745 4.46455 9.50609 4.43319L7.33002 2.25712C7.29866 2.22576 7.26143 2.20088 7.22046 2.18391C7.17948 2.16694 7.13557 2.1582 7.09122 2.1582Z" stroke="black" stroke-width="0.675417" stroke-miterlimit="10"/>
<path d="M5.55246 8.57367C5.83223 8.57367 6.05902 8.34688 6.05902 8.06711C6.05902 7.78734 5.83223 7.56055 5.55246 7.56055C5.27269 7.56055 5.0459 7.78734 5.0459 8.06711C5.0459 8.34688 5.27269 8.57367 5.55246 8.57367Z" fill="black"/>
</svg>
