<svg width="19" height="18" viewBox="0 0 19 18" fill="none" xmlns="http://www.w3.org/2000/svg">
<path d="M8.4667 8.82378C8.4667 9.19999 8.77169 9.50498 9.1479 9.50498C9.52412 9.50498 9.8291 9.19999 9.8291 8.82378C9.8291 8.44756 9.52412 8.14258 9.1479 8.14258C8.77169 8.14258 8.4667 8.44756 8.4667 8.82378Z" fill="black"/>
<path d="M8.4667 13.1832C8.4667 13.5594 8.77169 13.8644 9.1479 13.8644C9.52412 13.8644 9.8291 13.5594 9.8291 13.1832C9.8291 12.8069 9.52412 12.502 9.1479 12.502C8.77169 12.502 8.4667 12.8069 8.4667 13.1832Z" fill="black"/>
<path d="M8.4667 4.4644C8.4667 4.84062 8.77169 5.1456 9.1479 5.1456C9.52412 5.1456 9.8291 4.84062 9.8291 4.4644C9.8291 4.08819 9.52412 3.7832 9.1479 3.7832C8.77169 3.7832 8.4667 4.08819 8.4667 4.4644Z" fill="black"/>
</svg>
