<svg width="10" height="10" viewBox="0 0 10 10" fill="none" xmlns="http://www.w3.org/2000/svg">
<path d="M2.95215 5.41602H6.32923" stroke="#727272" stroke-width="0.675417" stroke-linecap="round" stroke-linejoin="round"/>
<path d="M3.79586 7.1056H2.38874C1.94091 7.1056 1.51142 6.9277 1.19476 6.61104C0.878095 6.29437 0.700195 5.86489 0.700195 5.41706C0.700195 4.96923 0.878095 4.53974 1.19476 4.22308C1.51142 3.90641 1.94091 3.72852 2.38874 3.72852H3.79586" stroke="#727272" stroke-width="0.675417" stroke-linecap="round" stroke-linejoin="round"/>
<path d="M5.48486 7.1056H6.89198C7.33981 7.1056 7.7693 6.9277 8.08596 6.61104C8.40263 6.29437 8.58052 5.86489 8.58052 5.41706C8.58052 4.96923 8.40263 4.53974 8.08596 4.22308C7.7693 3.90641 7.33981 3.72852 6.89198 3.72852H5.48486" stroke="#727272" stroke-width="0.675417" stroke-linecap="round" stroke-linejoin="round"/>
</svg>
