<svg width="19" height="19" viewBox="0 0 19 19" fill="none" xmlns="http://www.w3.org/2000/svg">
<path d="M1.25 1.55078H17.75V18.0508H1.25V1.55078Z" stroke="white" stroke-width="1.5"/>
<path d="M3.45898 4.17578H15.5409C15.6498 4.17578 15.7565 4.20744 15.8478 4.2669C15.9391 4.32636 16.0112 4.41106 16.0553 4.51072C16.0994 4.61038 16.1136 4.7207 16.0961 4.82827C16.0787 4.93584 16.0304 5.03603 15.9571 5.11666L11.3337 10.2024C11.2396 10.3059 11.1874 10.4408 11.1874 10.5807V14.5622C11.1874 14.6548 11.1646 14.746 11.1209 14.8277C11.0772 14.9093 11.014 14.9789 10.9369 15.0303L8.68694 16.5303C8.60223 16.5867 8.50378 16.6192 8.40208 16.6241C8.30039 16.629 8.19927 16.6062 8.10951 16.5582C8.01974 16.5101 7.9447 16.4386 7.89238 16.3513C7.84006 16.264 7.81243 16.1641 7.81243 16.0622V10.5807C7.81243 10.4408 7.76027 10.3059 7.66614 10.2024L3.04277 5.11666C2.96946 5.03603 2.92116 4.93584 2.90373 4.82827C2.8863 4.7207 2.90048 4.61038 2.94457 4.51072C2.98866 4.41106 3.06074 4.32636 3.15206 4.2669C3.24338 4.20744 3.35001 4.17578 3.45898 4.17578V4.17578Z" stroke="white" stroke-width="1.5" stroke-linecap="round" stroke-linejoin="round"/>
</svg>
