<svg width="8" height="9" viewBox="0 0 8 9" fill="none" xmlns="http://www.w3.org/2000/svg">
<path d="M0.707337 1.15216H7.23637V7.68119H0.707337V1.15216Z" stroke="white" stroke-width="0.675417"/>
<path d="M6.54779 4.22006L1.79413 1.558C1.75414 1.53561 1.70826 1.52595 1.66264 1.53032C1.61701 1.5347 1.57381 1.5529 1.5388 1.58248C1.50379 1.61207 1.47865 1.65163 1.46673 1.69589C1.45481 1.74015 1.45668 1.78699 1.4721 1.83016L2.36875 4.34077C2.38623 4.38974 2.38623 4.44325 2.36875 4.49221L1.4721 7.00282C1.45668 7.04599 1.45481 7.09283 1.46673 7.13709C1.47865 7.18134 1.50379 7.22091 1.5388 7.2505C1.57381 7.28008 1.61701 7.29828 1.66264 7.30265C1.70826 7.30703 1.75414 7.29737 1.79413 7.27498L6.54779 4.61292C6.58271 4.59337 6.61179 4.56486 6.63202 4.53033C6.65226 4.49581 6.66293 4.45651 6.66293 4.41649C6.66293 4.37647 6.65226 4.33717 6.63202 4.30265C6.61179 4.26812 6.58271 4.23961 6.54779 4.22006V4.22006Z" stroke="white" stroke-width="0.675417" stroke-linecap="round" stroke-linejoin="round"/>
<path d="M2.396 4.41602H4.19711" stroke="black" stroke-width="0.675417" stroke-linecap="round" stroke-linejoin="round"/>
</svg>
