<svg width="10" height="10" viewBox="0 0 10 10" fill="none" xmlns="http://www.w3.org/2000/svg">
<path d="M3.73682 4.85938H7.67671" stroke="#727272" stroke-width="0.675417" stroke-linecap="round" stroke-linejoin="round"/>
<path d="M3.73682 2.60742H7.67671" stroke="#727272" stroke-width="0.675417" stroke-linecap="round" stroke-linejoin="round"/>
<path d="M3.73682 7.11133H7.67675" stroke="#727272" stroke-width="0.675417" stroke-linecap="round" stroke-linejoin="round"/>
<path d="M1.48535 2.46697L2.0482 2.18555V4.1553" stroke="#727272" stroke-width="0.675417" stroke-linecap="round" stroke-linejoin="round"/>
<path d="M1.52405 5.72269C1.5508 5.65941 1.59048 5.60244 1.64054 5.55541C1.69061 5.50838 1.74997 5.47235 1.81479 5.44962C1.87961 5.42689 1.94847 5.41797 2.01694 5.42344C2.08542 5.4289 2.15199 5.44862 2.21239 5.48134C2.27279 5.51406 2.32567 5.55905 2.36765 5.61342C2.40963 5.66779 2.43977 5.73034 2.45614 5.79705C2.47251 5.86377 2.47475 5.93317 2.46271 6.00079C2.45067 6.06842 2.42462 6.13278 2.38622 6.18974L1.48535 7.39186H2.47033" stroke="#727272" stroke-width="0.675417" stroke-linecap="round" stroke-linejoin="round"/>
</svg>
