<svg width="12" height="12" viewBox="0 0 12 12" fill="none" xmlns="http://www.w3.org/2000/svg">
<path d="M9.79232 2.83203H1.68732C1.50081 2.83203 1.34961 2.98323 1.34961 3.16974V4.18287C1.34961 4.36938 1.50081 4.52057 1.68732 4.52057H9.79232C9.97883 4.52057 10.13 4.36938 10.13 4.18287V3.16974C10.13 2.98323 9.97883 2.83203 9.79232 2.83203Z" stroke="black" stroke-width="0.675417" stroke-linecap="round" stroke-linejoin="round"/>
<path d="M9.45449 4.52148V9.19745C9.45449 9.30079 9.41891 9.39991 9.35558 9.47298C9.29225 9.54606 9.20635 9.58711 9.11678 9.58711H2.36261C2.27305 9.58711 2.18715 9.54606 2.12381 9.47298C2.06048 9.39991 2.0249 9.30079 2.0249 9.19745V4.52148" stroke="black" stroke-width="0.675417" stroke-linecap="round" stroke-linejoin="round"/>
<path d="M4.72656 6.54688H6.75281" stroke="black" stroke-width="0.675417" stroke-linecap="round" stroke-linejoin="round"/>
</svg>
