<svg width="16" height="17" viewBox="0 0 16 17" fill="none" xmlns="http://www.w3.org/2000/svg">
<path d="M0.75 1.25H15.25V15.75H0.75V1.25Z" stroke="white" stroke-width="1.5"/>
<path d="M2.63037 3.5H13.3698C13.4667 3.5 13.5615 3.52814 13.6426 3.58099C13.7238 3.63384 13.7879 3.70914 13.8271 3.79772C13.8663 3.88631 13.8789 3.98437 13.8634 4.07999C13.8479 4.1756 13.8049 4.26466 13.7398 4.33634L9.63013 8.85697C9.54646 8.949 9.5001 9.06892 9.5001 9.1933V12.7324C9.5001 12.8147 9.47977 12.8958 9.44093 12.9683C9.40209 13.0409 9.34594 13.1028 9.27745 13.1484L7.27745 14.4818C7.20215 14.532 7.11463 14.5608 7.02424 14.5652C6.93384 14.5695 6.84396 14.5493 6.76417 14.5066C6.68438 14.4639 6.61767 14.4003 6.57116 14.3227C6.52466 14.245 6.5001 14.1562 6.5001 14.0657V9.1933C6.5001 9.06892 6.45373 8.949 6.37007 8.85697L2.2604 4.33634C2.19524 4.26466 2.15231 4.1756 2.13681 4.07999C2.12131 3.98437 2.13393 3.88631 2.17311 3.79772C2.2123 3.70914 2.27638 3.63384 2.35755 3.58099C2.43873 3.52814 2.53351 3.5 2.63037 3.5V3.5Z" stroke="white" stroke-width="1.5" stroke-linecap="round" stroke-linejoin="round"/>
</svg>
