<svg width="15" height="15" viewBox="0 0 15 15" fill="none" xmlns="http://www.w3.org/2000/svg">
<path d="M5.76258 6.92717C6.21481 7.85171 6.96424 8.59773 7.89083 9.04575C7.95863 9.07787 8.03362 9.09179 8.10842 9.08613C8.18323 9.08047 8.25528 9.05543 8.31746 9.01347L9.68181 8.10369C9.74215 8.06346 9.81157 8.03891 9.8838 8.03228C9.95602 8.02564 10.0288 8.03713 10.0954 8.0657L12.6478 9.1596C12.7346 9.19643 12.8069 9.26044 12.8541 9.34199C12.9013 9.42354 12.9207 9.51821 12.9093 9.61173C12.8287 10.243 12.5206 10.8233 12.043 11.2438C11.5653 11.6643 10.9507 11.8963 10.3143 11.8964C8.34865 11.8964 6.46352 11.1155 5.0736 9.7256C3.68368 8.33568 2.90283 6.45055 2.90283 4.48491C2.90287 3.84849 3.13487 3.23391 3.55541 2.75623C3.97595 2.27855 4.55618 1.97054 5.18747 1.88987C5.28099 1.87855 5.37566 1.89793 5.45721 1.94509C5.53876 1.99226 5.60277 2.06464 5.6396 2.15135L6.73446 4.70601C6.76278 4.77209 6.77431 4.84414 6.76805 4.91576C6.76178 4.98738 6.7379 5.05633 6.69853 5.11649L5.79191 6.50176C5.75065 6.56408 5.72625 6.63603 5.72111 6.71059C5.71597 6.78515 5.73026 6.85978 5.76258 6.92717V6.92717Z" stroke="white" stroke-width="0.871936" stroke-linecap="round" stroke-linejoin="round"/>
</svg>
