<svg width="19" height="18" viewBox="0 0 19 18" fill="none" xmlns="http://www.w3.org/2000/svg">
<path d="M8.4667 9.12456C8.4667 9.50078 8.77169 9.80576 9.1479 9.80576C9.52412 9.80576 9.8291 9.50078 9.8291 9.12456C9.8291 8.74834 9.52412 8.44336 9.1479 8.44336C8.77169 8.44336 8.4667 8.74834 8.4667 9.12456Z" fill="black"/>
<path d="M8.4667 13.4839C8.4667 13.8602 8.77169 14.1651 9.1479 14.1651C9.52412 14.1651 9.8291 13.8602 9.8291 13.4839C9.8291 13.1077 9.52412 12.8027 9.1479 12.8027C8.77169 12.8027 8.4667 13.1077 8.4667 13.4839Z" fill="black"/>
<path d="M8.4667 4.76518C8.4667 5.1414 8.77169 5.44638 9.1479 5.44638C9.52412 5.44638 9.8291 5.1414 9.8291 4.76518C9.8291 4.38897 9.52412 4.08398 9.1479 4.08398C8.77169 4.08398 8.4667 4.38897 8.4667 4.76518Z" fill="black"/>
</svg>
