<svg width="15" height="15" viewBox="0 0 15 15" fill="none" xmlns="http://www.w3.org/2000/svg">
<path fill-rule="evenodd" clip-rule="evenodd" d="M12.1586 3.13705C12.3856 3.36406 12.3856 3.73211 12.1586 3.95912L4.31117 11.8065C4.08416 12.0336 3.71611 12.0336 3.4891 11.8065C3.2621 11.5795 3.2621 11.2115 3.4891 10.9845L11.3365 3.13705C11.5635 2.91004 11.9316 2.91004 12.1586 3.13705Z" fill="#929AB5"/>
<path fill-rule="evenodd" clip-rule="evenodd" d="M3.4891 3.13705C3.71611 2.91004 4.08416 2.91004 4.31117 3.13705L12.1586 10.9845C12.3856 11.2115 12.3856 11.5795 12.1586 11.8065C11.9316 12.0336 11.5635 12.0336 11.3365 11.8065L3.4891 3.95912C3.2621 3.73211 3.2621 3.36406 3.4891 3.13705Z" fill="#929AB5"/>
</svg>
