<svg width="18" height="19" viewBox="0 0 18 19" fill="none" xmlns="http://www.w3.org/2000/svg">
<path d="M2.95898 3.875H15.0409C15.1498 3.875 15.2565 3.90665 15.3478 3.96611C15.4391 4.02557 15.5112 4.11028 15.5553 4.20994C15.5994 4.3096 15.6136 4.41991 15.5961 4.52748C15.5787 4.63505 15.5304 4.73524 15.4571 4.81588L10.8337 9.90159C10.7396 10.0051 10.6874 10.14 10.6874 10.28V14.2615C10.6874 14.3541 10.6646 14.4452 10.6209 14.5269C10.5772 14.6085 10.514 14.6781 10.4369 14.7295L8.18694 16.2295C8.10223 16.286 8.00378 16.3184 7.90208 16.3233C7.80039 16.3282 7.69927 16.3054 7.60951 16.2574C7.51974 16.2094 7.4447 16.1379 7.39238 16.0505C7.34006 15.9632 7.31243 15.8633 7.31243 15.7615V10.28C7.31243 10.14 7.26027 10.0051 7.16614 9.90159L2.54277 4.81588C2.46946 4.73524 2.42116 4.63505 2.40373 4.52748C2.3863 4.41991 2.40048 4.3096 2.44457 4.20994C2.48866 4.11028 2.56074 4.02557 2.65206 3.96611C2.74338 3.90665 2.85001 3.875 2.95898 3.875V3.875Z" stroke="black" stroke-width="1.5" stroke-linecap="round" stroke-linejoin="round"/>
</svg>
