<svg width="19" height="18" viewBox="0 0 19 18" fill="none" xmlns="http://www.w3.org/2000/svg">
<path d="M9.31552 2.23715L3.82133 3.33598L2.7225 8.83017C2.7049 8.91814 2.7093 9.0091 2.7353 9.09496C2.7613 9.18083 2.80809 9.25895 2.87153 9.32239L9.98685 16.4377C10.0375 16.4883 10.0975 16.5285 10.1637 16.5558C10.2298 16.5832 10.3006 16.5973 10.3722 16.5973C10.4438 16.5973 10.5146 16.5832 10.5807 16.5558C10.6469 16.5285 10.7069 16.4883 10.7575 16.4377L16.9231 10.2722C16.9737 10.2216 17.0138 10.1615 17.0412 10.0954C17.0686 10.0293 17.0827 9.95841 17.0827 9.88685C17.0827 9.81528 17.0686 9.74442 17.0412 9.6783C17.0138 9.61218 16.9737 9.55211 16.9231 9.5015L9.80774 2.38618C9.7443 2.32274 9.66618 2.27594 9.58031 2.24995C9.49445 2.22395 9.40349 2.21955 9.31552 2.23715V2.23715Z" stroke="black" stroke-width="1.3079" stroke-linecap="round" stroke-linejoin="round"/>
<path d="M6.68169 6.87607C7.0579 6.87607 7.36289 6.57109 7.36289 6.19487C7.36289 5.81866 7.0579 5.51367 6.68169 5.51367C6.30547 5.51367 6.00049 5.81866 6.00049 6.19487C6.00049 6.57109 6.30547 6.87607 6.68169 6.87607Z" fill="black"/>
</svg>
