<svg width="16" height="17" viewBox="0 0 16 17" fill="none" xmlns="http://www.w3.org/2000/svg">
<path d="M8 14.5C11.3137 14.5 14 11.8137 14 8.5C14 5.18629 11.3137 2.5 8 2.5C4.68629 2.5 2 5.18629 2 8.5C2 11.8137 4.68629 14.5 8 14.5Z" stroke="black" stroke-miterlimit="10"/>
<path d="M2.3418 6.5H13.6584" stroke="black" stroke-linecap="round" stroke-linejoin="round"/>
<path d="M2.3418 10.5H13.6583" stroke="black" stroke-linecap="round" stroke-linejoin="round"/>
<path d="M8 14.338C9.38071 14.338 10.5 11.7238 10.5 8.49909C10.5 5.27434 9.38071 2.66016 8 2.66016C6.61929 2.66016 5.5 5.27434 5.5 8.49909C5.5 11.7238 6.61929 14.338 8 14.338Z" stroke="black" stroke-miterlimit="10"/>
</svg>
