<svg width="19" height="18" viewBox="0 0 19 18" fill="none" xmlns="http://www.w3.org/2000/svg">
<path d="M14.4146 9.73828H17.6843" stroke="black" stroke-width="1.3079" stroke-linecap="round" stroke-linejoin="round"/>
<path d="M16.0493 8.10352V11.3733" stroke="black" stroke-width="1.3079" stroke-linecap="round" stroke-linejoin="round"/>
<path d="M8.14726 11.3717C10.4046 11.3717 12.2345 9.54176 12.2345 7.28447C12.2345 5.02717 10.4046 3.19727 8.14726 3.19727C5.88996 3.19727 4.06006 5.02717 4.06006 7.28447C4.06006 9.54176 5.88996 11.3717 8.14726 11.3717Z" stroke="black" stroke-width="1.3079" stroke-miterlimit="10"/>
<path d="M2.30322 14.0977C3.01939 13.2445 3.91371 12.5584 4.92334 12.0877C5.93298 11.617 7.03344 11.373 8.14741 11.373C9.26137 11.3731 10.3618 11.617 11.3715 12.0877C12.3811 12.5584 13.2754 13.2445 13.9916 14.0977" stroke="black" stroke-width="1.3079" stroke-linecap="round" stroke-linejoin="round"/>
</svg>
