<svg width="8" height="9" viewBox="0 0 8 9" fill="none" xmlns="http://www.w3.org/2000/svg">
<path d="M6.95648 4.22006L2.20282 1.558C2.16283 1.53561 2.11695 1.52595 2.07133 1.53032C2.0257 1.5347 1.9825 1.5529 1.94749 1.58248C1.91248 1.61207 1.88734 1.65163 1.87542 1.69589C1.8635 1.74015 1.86538 1.78699 1.88079 1.83016L2.77744 4.34077C2.79493 4.38974 2.79493 4.44325 2.77744 4.49221L1.88079 7.00282C1.86538 7.04599 1.8635 7.09283 1.87542 7.13709C1.88734 7.18134 1.91248 7.22091 1.94749 7.2505C1.9825 7.28008 2.0257 7.29828 2.07133 7.30265C2.11695 7.30703 2.16283 7.29737 2.20282 7.27498L6.95649 4.61292C6.9914 4.59337 7.02048 4.56486 7.04072 4.53033C7.06095 4.49581 7.07162 4.45651 7.07162 4.41649C7.07162 4.37647 7.06095 4.33717 7.04071 4.30265C7.02048 4.26812 6.9914 4.23961 6.95648 4.22006V4.22006Z" stroke="white" stroke-width="0.450278" stroke-linecap="round" stroke-linejoin="round"/>
<path d="M2.80469 4.41602H4.6058" stroke="white" stroke-width="0.450278" stroke-linecap="round" stroke-linejoin="round"/>
</svg>
