<svg width="10" height="10" viewBox="0 0 10 10" fill="none" xmlns="http://www.w3.org/2000/svg">
<path d="M6.35738 3.72761L3.42678 6.70687C3.32123 6.81242 3.26193 6.95559 3.26193 7.10486C3.26193 7.25414 3.32123 7.3973 3.42678 7.50286C3.53233 7.60841 3.6755 7.66771 3.82477 7.66771C3.97405 7.66771 4.11721 7.60841 4.22277 7.50286L7.71622 3.96074C7.82075 3.85621 7.90366 3.73212 7.96024 3.59554C8.01681 3.45897 8.04592 3.31259 8.04592 3.16476C8.04592 3.01693 8.01681 2.87055 7.96024 2.73397C7.90366 2.5974 7.82075 2.4733 7.71622 2.36877C7.61169 2.26424 7.48759 2.18132 7.35101 2.12475C7.21444 2.06818 7.06806 2.03906 6.92023 2.03906C6.7724 2.03906 6.62602 2.06818 6.48944 2.12475C6.35287 2.18132 6.22877 2.26424 6.12424 2.36877L2.63079 5.91088C2.31413 6.22755 2.13623 6.65703 2.13623 7.10486C2.13623 7.55269 2.31413 7.98218 2.63079 8.29884C2.94746 8.61551 3.37694 8.79341 3.82477 8.79341C4.2726 8.79341 4.70209 8.61551 5.01875 8.29884L7.90521 5.41615" stroke="#727272" stroke-width="0.675417" stroke-linecap="round" stroke-linejoin="round"/>
</svg>
