<svg width="15" height="15" viewBox="0 0 15 15" fill="none" xmlns="http://www.w3.org/2000/svg">
<path d="M0.752738 0.181449H14.5947V14.0234H0.752738V0.181449Z" stroke="black" stroke-width="0.108992"/>
<path d="M5.73768 6.92717C6.18991 7.85171 6.93933 8.59773 7.86593 9.04575C7.93372 9.07787 8.00871 9.09179 8.08352 9.08613C8.15833 9.08047 8.23037 9.05543 8.29256 9.01347L9.65691 8.10369C9.71725 8.06346 9.78667 8.03891 9.85889 8.03228C9.93111 8.02564 10.0039 8.03713 10.0705 8.0657L12.6229 9.1596C12.7096 9.19643 12.782 9.26044 12.8292 9.34199C12.8764 9.42354 12.8957 9.51821 12.8844 9.61173C12.8038 10.243 12.4957 10.8233 12.0181 11.2438C11.5404 11.6643 10.9258 11.8963 10.2894 11.8964C8.32375 11.8964 6.43861 11.1155 5.0487 9.7256C3.65878 8.33568 2.87793 6.45055 2.87793 4.48491C2.87796 3.84849 3.10997 3.23391 3.53051 2.75623C3.95105 2.27855 4.53128 1.97054 5.16257 1.88987C5.25609 1.87855 5.35076 1.89793 5.43231 1.94509C5.51386 1.99226 5.57787 2.06464 5.6147 2.15135L6.70955 4.70601C6.73787 4.77209 6.74941 4.84414 6.74314 4.91576C6.73688 4.98738 6.71299 5.05633 6.67362 5.11649L5.76701 6.50176C5.72574 6.56408 5.70135 6.63603 5.69621 6.71059C5.69107 6.78515 5.70536 6.85978 5.73768 6.92717V6.92717Z" stroke="black" stroke-width="1.3079" stroke-linecap="round" stroke-linejoin="round"/>
</svg>
