<svg width="10" height="10" viewBox="0 0 10 10" fill="none" xmlns="http://www.w3.org/2000/svg">
<path d="M7.96232 2.88477L1.771 2.88477" stroke="#727272" stroke-width="0.675417" stroke-linecap="round" stroke-linejoin="round"/>
<path d="M4.02295 4.57227V6.82366" stroke="#727272" stroke-width="0.675417" stroke-linecap="round" stroke-linejoin="round"/>
<path d="M5.71143 4.57227V6.82366" stroke="#727272" stroke-width="0.675417" stroke-linecap="round" stroke-linejoin="round"/>
<path d="M7.39961 2.88477V8.23182C7.39961 8.30646 7.36996 8.37804 7.31719 8.43081C7.26441 8.48359 7.19283 8.51324 7.11819 8.51324H2.61541C2.54077 8.51324 2.46919 8.48359 2.41641 8.43081C2.36363 8.37804 2.33398 8.30646 2.33398 8.23182V2.88477" stroke="#727272" stroke-width="0.675417" stroke-linecap="round" stroke-linejoin="round"/>
<path d="M6.2742 2.88351V2.32066C6.2742 2.17138 6.2149 2.02822 6.10934 1.92267C6.00379 1.81711 5.86063 1.75781 5.71135 1.75781H4.02281C3.87353 1.75781 3.73037 1.81711 3.62482 1.92267C3.51926 2.02822 3.45996 2.17138 3.45996 2.32066V2.88351" stroke="#727272" stroke-width="0.675417" stroke-linecap="round" stroke-linejoin="round"/>
</svg>
