<svg width="10" height="10" viewBox="0 0 10 10" fill="none" xmlns="http://www.w3.org/2000/svg">
<path d="M4.80685 7.33016L6.58106 8.45423C6.80785 8.59791 7.08943 8.38421 7.02213 8.11948L6.50952 6.103C6.49508 6.04683 6.49679 5.98774 6.51445 5.9325C6.53211 5.87727 6.565 5.82814 6.60934 5.79076L8.20034 4.46654C8.4094 4.29254 8.3015 3.9456 8.03291 3.92817L5.95516 3.79332C5.8992 3.78932 5.84552 3.76951 5.80038 3.73619C5.75524 3.70286 5.7205 3.6574 5.70019 3.6051L4.92528 1.65367C4.90422 1.59816 4.86676 1.55036 4.8179 1.51663C4.76903 1.48291 4.71105 1.46484 4.65167 1.46484C4.5923 1.46484 4.53432 1.48291 4.48545 1.51663C4.43658 1.55036 4.39913 1.59816 4.37807 1.65367L3.60315 3.6051C3.58285 3.6574 3.54811 3.70286 3.50297 3.73619C3.45783 3.76951 3.40415 3.78932 3.34819 3.79332L1.27044 3.92817C1.00185 3.9456 0.893952 4.29254 1.103 4.46654L2.69401 5.79076C2.73835 5.82814 2.77124 5.87727 2.78889 5.9325C2.80655 5.98774 2.80826 6.04683 2.79383 6.103L2.31844 7.97306C2.23768 8.29074 2.57557 8.54718 2.84772 8.37476L4.4965 7.33016C4.54287 7.30064 4.5967 7.28496 4.65167 7.28496C4.70664 7.28496 4.76047 7.30064 4.80685 7.33016V7.33016Z" stroke="black" stroke-width="0.675417" stroke-linecap="round" stroke-linejoin="round"/>
</svg>
