<svg width="10" height="10" viewBox="0 0 10 10" fill="none" xmlns="http://www.w3.org/2000/svg">
<path d="M5.18193 3.08261C5.44097 3.08261 5.65097 2.87261 5.65097 2.61357C5.65097 2.35453 5.44097 2.14453 5.18193 2.14453C4.92289 2.14453 4.71289 2.35453 4.71289 2.61357C4.71289 2.87261 4.92289 3.08261 5.18193 3.08261Z" fill="black"/>
<path d="M5.18193 5.33456C5.44097 5.33456 5.65097 5.12457 5.65097 4.86552C5.65097 4.60648 5.44097 4.39648 5.18193 4.39648C4.92289 4.39648 4.71289 4.60648 4.71289 4.86552C4.71289 5.12457 4.92289 5.33456 5.18193 5.33456Z" fill="black"/>
<path d="M5.18193 7.58652C5.44097 7.58652 5.65097 7.37652 5.65097 7.11748C5.65097 6.85843 5.44097 6.64844 5.18193 6.64844C4.92289 6.64844 4.71289 6.85843 4.71289 7.11748C4.71289 7.37652 4.92289 7.58652 5.18193 7.58652Z" fill="black"/>
</svg>
