<svg width="18" height="18" viewBox="0 0 18 18" fill="none" xmlns="http://www.w3.org/2000/svg">
<path d="M6.63672 10.2734H10.794" stroke="#727272" stroke-width="1.03933" stroke-linecap="round" stroke-linejoin="round"/>
<path d="M6.63672 8.19531H10.794" stroke="#727272" stroke-width="1.03933" stroke-linecap="round" stroke-linejoin="round"/>
<path d="M10.7945 2.99805H13.3926C13.5305 2.99805 13.6626 3.0528 13.7601 3.15025C13.8576 3.24771 13.9123 3.37989 13.9123 3.51771V14.4306C13.9123 14.5685 13.8576 14.7006 13.7601 14.7981C13.6626 14.8955 13.5305 14.9503 13.3926 14.9503H4.03871C3.90088 14.9503 3.7687 14.8955 3.67125 14.7981C3.57379 14.7006 3.51904 14.5685 3.51904 14.4306V3.51771C3.51904 3.37989 3.57379 3.24771 3.67125 3.15025C3.7687 3.0528 3.90088 2.99805 4.03871 2.99805H6.63688" stroke="#727272" stroke-width="1.03933" stroke-linecap="round" stroke-linejoin="round"/>
<path d="M6.11719 5.07696V4.5573C6.11719 3.86818 6.39094 3.20729 6.87822 2.72001C7.36549 2.23273 8.02639 1.95898 8.7155 1.95898C9.40462 1.95898 10.0655 2.23273 10.5528 2.72001C11.0401 3.20729 11.3138 3.86818 11.3138 4.5573V5.07696H6.11719Z" stroke="#727272" stroke-width="1.03933" stroke-linecap="round" stroke-linejoin="round"/>
</svg>
