<svg width="12" height="12" viewBox="0 0 12 12" fill="none" xmlns="http://www.w3.org/2000/svg">
<path d="M10.079 3.16992L2.64941 3.16992" stroke="black" stroke-width="0.675417" stroke-linecap="round" stroke-linejoin="round"/>
<path d="M5.35107 5.19727V7.89893" stroke="black" stroke-width="0.675417" stroke-linecap="round" stroke-linejoin="round"/>
<path d="M7.37744 5.19727V7.89893" stroke="black" stroke-width="0.675417" stroke-linecap="round" stroke-linejoin="round"/>
<path d="M9.40346 3.16992V9.58638C9.40346 9.67595 9.36788 9.76185 9.30455 9.82518C9.24122 9.88851 9.15532 9.92409 9.06575 9.92409H3.66242C3.57285 9.92409 3.48695 9.88851 3.42362 9.82518C3.36029 9.76185 3.32471 9.67595 3.32471 9.58638V3.16992" stroke="black" stroke-width="0.675417" stroke-linecap="round" stroke-linejoin="round"/>
<path d="M8.05287 3.17115V2.49573C8.05287 2.3166 7.98171 2.1448 7.85504 2.01814C7.72838 1.89147 7.55658 1.82031 7.37745 1.82031H5.3512C5.17207 1.82031 5.00027 1.89147 4.87361 2.01814C4.74694 2.1448 4.67578 2.3166 4.67578 2.49573V3.17115" stroke="black" stroke-width="0.675417" stroke-linecap="round" stroke-linejoin="round"/>
</svg>
