<svg width="8" height="8" viewBox="0 0 8 8" fill="none" xmlns="http://www.w3.org/2000/svg">
<path d="M3.75118 5.28459C4.37289 5.28459 4.87688 4.7806 4.87688 4.1589C4.87688 3.53719 4.37289 3.0332 3.75118 3.0332C3.12948 3.0332 2.62549 3.53719 2.62549 4.1589C2.62549 4.7806 3.12948 5.28459 3.75118 5.28459Z" stroke="black" stroke-width="0.450278" stroke-linecap="round" stroke-linejoin="round"/>
<path d="M5.66504 3.48438C5.92721 3.48416 6.18581 3.54508 6.42031 3.66231C6.65481 3.77953 6.85874 3.94983 7.01591 4.15967" stroke="black" stroke-width="0.450278" stroke-linecap="round" stroke-linejoin="round"/>
<path d="M0.486816 4.15973C0.643975 3.94988 0.847911 3.77956 1.08242 3.66232C1.31693 3.54509 1.57555 3.48416 1.83773 3.48438" stroke="black" stroke-width="0.450278" stroke-linecap="round" stroke-linejoin="round"/>
<path d="M2.13135 6.29826C2.27924 5.99449 2.50956 5.73842 2.79602 5.55929C3.08247 5.38015 3.41352 5.28516 3.75138 5.28516C4.08923 5.28516 4.42029 5.38014 4.70674 5.55928C4.9932 5.73842 5.22352 5.99448 5.37141 6.29825" stroke="black" stroke-width="0.450278" stroke-linecap="round" stroke-linejoin="round"/>
<path d="M1.83789 3.48471C1.66702 3.48467 1.49968 3.43603 1.35542 3.34446C1.21117 3.25288 1.09594 3.12216 1.02319 2.96755C0.950445 2.81294 0.923187 2.64082 0.9446 2.4713C0.966012 2.30177 1.03521 2.14184 1.14412 2.01017C1.25302 1.87851 1.39714 1.78054 1.55964 1.72771C1.72213 1.67489 1.89631 1.66938 2.06182 1.71184C2.22733 1.75429 2.37735 1.84296 2.49435 1.96748C2.61136 2.09201 2.69052 2.24725 2.7226 2.41508" stroke="black" stroke-width="0.450278" stroke-linecap="round" stroke-linejoin="round"/>
<path d="M4.78027 2.41525C4.81234 2.24739 4.89149 2.09212 5.0085 1.96757C5.12551 1.84302 5.27554 1.75433 5.44107 1.71185C5.6066 1.66938 5.7808 1.67488 5.94332 1.72771C6.10585 1.78054 6.24999 1.87851 6.35891 2.0102C6.46783 2.14188 6.53703 2.30183 6.55845 2.47138C6.57986 2.64093 6.55259 2.81307 6.47983 2.96769C6.40707 3.12232 6.29181 3.25306 6.14753 3.34463C6.00324 3.43621 5.83588 3.48484 5.66499 3.48486" stroke="black" stroke-width="0.450278" stroke-linecap="round" stroke-linejoin="round"/>
</svg>
