<svg width="18" height="18" viewBox="0 0 18 18" fill="none" xmlns="http://www.w3.org/2000/svg">
<path d="M14.4322 5.07812H2.99964C2.71264 5.07812 2.47998 5.31079 2.47998 5.59779V13.9124C2.47998 14.1994 2.71264 14.4321 2.99964 14.4321H14.4322C14.7192 14.4321 14.9519 14.1994 14.9519 13.9124V5.59779C14.9519 5.31079 14.7192 5.07812 14.4322 5.07812Z" stroke="#727272" stroke-width="1.03933" stroke-linecap="round" stroke-linejoin="round"/>
<path d="M11.3138 5.0767V4.03737C11.3138 3.76173 11.2043 3.49737 11.0094 3.30246C10.8145 3.10755 10.5501 2.99805 10.2745 2.99805H7.15651C6.88087 2.99805 6.61651 3.10755 6.4216 3.30246C6.22669 3.49737 6.11719 3.76173 6.11719 4.03737V5.0767" stroke="#727272" stroke-width="1.03933" stroke-linecap="round" stroke-linejoin="round"/>
<path d="M14.952 8.60547C13.0567 9.70199 10.9051 10.2777 8.71551 10.2743C6.52626 10.2777 4.37504 9.70219 2.47998 8.60602" stroke="#727272" stroke-width="1.03933" stroke-linecap="round" stroke-linejoin="round"/>
<path d="M7.93604 8.19531H9.49502" stroke="#727272" stroke-width="1.03933" stroke-linecap="round" stroke-linejoin="round"/>
</svg>
