<svg width="10" height="10" viewBox="0 0 10 10" fill="none" xmlns="http://www.w3.org/2000/svg">
<path d="M8.14511 2.60352H1.95379C1.79836 2.60352 1.67236 2.72951 1.67236 2.88494V7.95057C1.67236 8.10599 1.79836 8.23199 1.95379 8.23199H8.14511C8.30054 8.23199 8.42653 8.10599 8.42653 7.95057V2.88494C8.42653 2.72951 8.30054 2.60352 8.14511 2.60352Z" stroke="#727272" stroke-width="0.675417" stroke-linecap="round" stroke-linejoin="round"/>
<path d="M1.67236 6.82409L3.44333 5.05313C3.46946 5.027 3.50048 5.00627 3.53463 4.99213C3.56877 4.97798 3.60537 4.9707 3.64232 4.9707C3.67928 4.9707 3.71588 4.97798 3.75002 4.99213C3.78416 5.00627 3.81519 5.027 3.84132 5.05313L5.41329 6.6251C5.43943 6.65124 5.47045 6.67197 5.50459 6.68611C5.53874 6.70025 5.57533 6.70753 5.61229 6.70753C5.64925 6.70753 5.68584 6.70025 5.71999 6.68611C5.75413 6.67197 5.78516 6.65124 5.81129 6.6251L6.53899 5.8974C6.56512 5.87127 6.59615 5.85054 6.63029 5.8364C6.66443 5.82225 6.70103 5.81497 6.73799 5.81497C6.77494 5.81497 6.81154 5.82225 6.84568 5.8364C6.87983 5.85054 6.91085 5.87127 6.93698 5.8974L8.42653 7.38695" stroke="#727272" stroke-width="0.675417" stroke-linecap="round" stroke-linejoin="round"/>
<path d="M6.03444 4.85404C6.26758 4.85404 6.45658 4.66504 6.45658 4.4319C6.45658 4.19876 6.26758 4.00977 6.03444 4.00977C5.8013 4.00977 5.6123 4.19876 5.6123 4.4319C5.6123 4.66504 5.8013 4.85404 6.03444 4.85404Z" fill="#727272"/>
</svg>
