<svg width="7" height="11" viewBox="0 0 7 11" fill="none" xmlns="http://www.w3.org/2000/svg">
<path d="M1.20551 10.4272H5.9142C6.55225 10.4272 6.86385 10.1106 6.86385 9.41819V5.78775C6.86385 5.16454 6.60666 4.84304 6.07742 4.78863V3.54222C6.07742 1.67753 4.85574 0.777344 3.55986 0.777344C2.26398 0.777344 1.04229 1.67753 1.04229 3.54222V4.81336C0.557572 4.88756 0.255859 5.20411 0.255859 5.78775V9.41819C0.255859 10.1106 0.567464 10.4272 1.20551 10.4272ZM1.83861 3.43835C1.83861 2.19688 2.63494 1.53904 3.55986 1.53904C4.48478 1.53904 5.2811 2.19688 5.2811 3.43835V4.78369L1.83861 4.78863V3.43835Z" fill="#9E9E9E"/>
</svg>
