<svg width="10" height="11" viewBox="0 0 10 11" fill="none" xmlns="http://www.w3.org/2000/svg">
<path d="M4.72744 5.27709C4.85109 5.27709 4.94506 5.23753 5.01431 5.16333L7.0521 3.11565C7.14113 3.03156 7.17576 2.93264 7.17576 2.81888C7.17576 2.71007 7.13124 2.60125 7.0521 2.52212L5.01431 0.454644C4.94506 0.375506 4.84614 0.335938 4.72744 0.335938C4.50486 0.335938 4.33669 0.513997 4.33669 0.741518C4.33669 0.845386 4.37626 0.944308 4.44551 1.02345L5.76612 2.31932C5.48419 2.26986 5.19732 2.24019 4.91044 2.24019C2.48685 2.24019 0.538086 4.18401 0.538086 6.6076C0.538086 9.03613 2.48685 10.9849 4.91044 10.9849C7.33403 10.9849 9.27785 9.03613 9.27785 6.6076C9.27785 6.37018 9.10968 6.19707 8.86732 6.19707C8.63486 6.19707 8.48153 6.37018 8.48153 6.6076C8.48153 8.59593 6.89383 10.1886 4.91044 10.1886C2.92705 10.1886 1.33441 8.59593 1.33441 6.6076C1.33441 4.62421 2.92705 3.03651 4.91044 3.03651C5.28635 3.03651 5.63257 3.06619 5.92934 3.13049L4.45045 4.59948C4.37626 4.67862 4.33669 4.77754 4.33669 4.88141C4.33669 5.10893 4.50486 5.27709 4.72744 5.27709Z" fill="#797979"/>
</svg>
