<svg width="5" height="8" viewBox="0 0 5 8" fill="none" xmlns="http://www.w3.org/2000/svg">
<path d="M1.04843 7.2289H4.33183C4.77674 7.2289 4.99402 7.00816 4.99402 6.52531V3.99378C4.99402 3.55922 4.81468 3.33503 4.44564 3.2971V2.42796C4.44564 1.12771 3.59375 0.5 2.69013 0.5C1.7865 0.5 0.934613 1.12771 0.934613 2.42796V3.31434C0.596616 3.36608 0.38623 3.58681 0.38623 3.99378V6.52531C0.38623 7.00816 0.603514 7.2289 1.04843 7.2289ZM1.48989 2.35553C1.48989 1.48985 2.04517 1.03114 2.69013 1.03114C3.33508 1.03114 3.89036 1.48985 3.89036 2.35553V3.29365L1.48989 3.2971V2.35553Z" fill="#9E9E9E"/>
</svg>
