<svg width="7" height="8" viewBox="0 0 7 8" fill="none" xmlns="http://www.w3.org/2000/svg">
<path d="M3.55944 3.6369C3.64567 3.6369 3.7112 3.60931 3.75948 3.55758L5.18045 2.12971C5.24253 2.07108 5.26667 2.0021 5.26667 1.92278C5.26667 1.8469 5.23563 1.77102 5.18045 1.71584L3.75948 0.274181C3.7112 0.218998 3.64222 0.191406 3.55944 0.191406C3.40424 0.191406 3.28697 0.315568 3.28697 0.47422C3.28697 0.546648 3.31457 0.615627 3.36285 0.67081L4.28372 1.57443C4.08713 1.53994 3.88709 1.51925 3.68705 1.51925C1.99707 1.51925 0.638184 2.87469 0.638184 4.56467C0.638184 6.2581 1.99707 7.61699 3.68705 7.61699C5.37704 7.61699 6.73247 6.2581 6.73247 4.56467C6.73247 4.39912 6.61521 4.27841 6.44621 4.27841C6.28411 4.27841 6.17719 4.39912 6.17719 4.56467C6.17719 5.95115 5.07008 7.06171 3.68705 7.06171C2.30403 7.06171 1.19346 5.95115 1.19346 4.56467C1.19346 3.18164 2.30403 2.07453 3.68705 2.07453C3.94917 2.07453 4.1906 2.09523 4.39754 2.14006L3.3663 3.1644C3.31457 3.21958 3.28697 3.28856 3.28697 3.36099C3.28697 3.51964 3.40424 3.6369 3.55944 3.6369Z" fill="#797979"/>
</svg>
